<svg width="10" height="10" viewBox="-10 0 32 12" fill="none" xmlns="http://www.w3.org/2000/svg">
<path d="M10.991 5.931C10.9417 6.78733 10.6953 7.4632 10.2516 7.9586C9.80796 8.454 9.21436 8.7017 8.47083 8.7017C7.70265 8.7017 7.20969 8.40446 6.99198 7.80998C6.77015 8.11076 6.51546 8.33546 6.2279 8.48408C5.94445 8.62916 5.65074 8.7017 5.34675 8.7017C4.76343 8.7017 4.32182 8.49646 4.02195 8.08599C3.72207 7.67551 3.61115 7.10757 3.6892 6.38217C3.75082 5.7983 3.90487 5.27813 4.15135 4.82166C4.40193 4.36164 4.72235 4.00071 5.1126 3.73885C5.50696 3.477 5.91981 3.34607 6.35114 3.34607C6.68388 3.34607 6.98171 3.385 7.24461 3.46284C7.50752 3.53715 7.80329 3.68577 8.13192 3.9087L7.81151 6.84926C7.73346 7.66667 7.99636 8.07537 8.60023 8.07537C9.06442 8.07537 9.4403 7.87721 9.72785 7.48089C10.0154 7.08457 10.1715 6.56794 10.1962 5.931C10.2742 4.55449 9.97638 3.50531 9.30268 2.78344C8.63309 2.06157 7.61227 1.70064 6.24023 1.70064C5.41453 1.70064 4.68127 1.87757 4.04043 2.23142C3.3996 2.58174 2.89432 3.08953 2.52461 3.75478C2.1549 4.42003 1.94745 5.1879 1.90226 6.05839C1.85296 6.93595 1.9762 7.69851 2.27197 8.34607C2.56774 8.99009 3.01756 9.48195 3.62142 9.82166C4.2294 10.1649 4.96266 10.3365 5.82122 10.3365C6.19093 10.3365 6.56064 10.2976 6.93036 10.2197C7.30418 10.1419 7.61433 10.041 7.8608 9.9172L8.08879 10.5276C7.8341 10.6656 7.4952 10.7788 7.07208 10.8673C6.65307 10.9558 6.2279 11 5.79657 11C4.76959 11 3.88639 10.8001 3.14696 10.4002C2.40753 10.0039 1.85296 9.43064 1.48325 8.68047C1.11765 7.93383 0.95949 7.0598 1.00879 6.05839C1.05808 5.08528 1.31072 4.21125 1.7667 3.43631C2.22268 2.65782 2.84092 2.05803 3.62142 1.63694C4.40193 1.21231 5.28308 1 6.26487 1C7.28775 1 8.16479 1.19816 8.896 1.59448C9.62721 1.9908 10.1715 2.56228 10.5289 3.30892C10.8863 4.05556 11.0403 4.92958 10.991 5.931ZM4.66894 6.38217C4.61143 6.88464 4.66484 7.27035 4.82915 7.53928C4.99758 7.80821 5.26254 7.94268 5.62404 7.94268C5.87051 7.94268 6.10672 7.85244 6.33265 7.67197C6.5627 7.49151 6.75166 7.23319 6.89955 6.89703L6.90571 6.84926L7.18916 4.17941C6.95911 4.07679 6.71264 4.02548 6.44973 4.02548C5.9691 4.02548 5.57063 4.23602 5.25432 4.65711C4.94212 5.0782 4.74699 5.65322 4.66894 6.38217Z" fill="#FFFFFF"/>
</svg>