<svg width="14" height="16" viewBox="0 0 14 16" fill="none" xmlns="http://www.w3.org/2000/svg">
<path d="M9.96983 10.3244C10.402 10.0922 10.8966 9.96007 11.4234 9.96007H11.4252C11.4788 9.96007 11.5038 9.89578 11.4645 9.86007C10.9166 9.36842 10.2908 8.97133 9.61268 8.68507C9.60554 8.68149 9.5984 8.67971 9.59126 8.67614C10.7002 7.87078 11.4216 6.56185 11.4216 5.08507C11.4216 2.63864 9.44304 0.656494 7.00197 0.656494C4.5609 0.656494 2.58411 2.63864 2.58411 5.08507C2.58411 6.56185 3.30554 7.87078 4.41626 8.67614C4.40911 8.67971 4.40197 8.68149 4.39483 8.68507C3.59661 9.02257 2.88054 9.50649 2.26447 10.1244C1.65196 10.7358 1.16432 11.4605 0.828755 12.2583C0.4986 13.0395 0.320419 13.8764 0.303756 14.7244C0.303279 14.7434 0.306622 14.7624 0.313587 14.7801C0.320553 14.7979 0.331 14.814 0.344313 14.8277C0.357627 14.8413 0.373537 14.8522 0.391106 14.8596C0.408675 14.867 0.427548 14.8708 0.446613 14.8708H1.51626C1.59304 14.8708 1.65733 14.8083 1.65911 14.7315C1.69483 13.3529 2.24661 12.0619 3.2234 11.0833C4.23233 10.0708 5.57518 9.51364 7.00376 9.51364C8.01626 9.51364 8.98769 9.79399 9.82518 10.319C9.8467 10.3325 9.8714 10.3401 9.89679 10.3411C9.92218 10.342 9.94737 10.3362 9.96983 10.3244ZM7.00376 8.15649C6.1859 8.15649 5.41626 7.83685 4.8359 7.25649C4.55035 6.97169 4.32398 6.6332 4.16983 6.26053C4.01567 5.88785 3.93677 5.48836 3.93768 5.08507C3.93768 4.26542 4.25733 3.49399 4.8359 2.91364C5.41447 2.33328 6.18411 2.01364 7.00376 2.01364C7.8234 2.01364 8.59126 2.33328 9.17161 2.91364C9.45716 3.19844 9.68353 3.53693 9.83768 3.9096C9.99184 4.28228 10.0707 4.68177 10.0698 5.08507C10.0698 5.90471 9.75018 6.67614 9.17161 7.25649C8.59126 7.83685 7.82161 8.15649 7.00376 8.15649ZM13.5716 12.4065H12.0716V10.9065C12.0716 10.8279 12.0073 10.7636 11.9288 10.7636H10.9288C10.8502 10.7636 10.7859 10.8279 10.7859 10.9065V12.4065H9.2859C9.20733 12.4065 9.14304 12.4708 9.14304 12.5494V13.5494C9.14304 13.6279 9.20733 13.6922 9.2859 13.6922H10.7859V15.1922C10.7859 15.2708 10.8502 15.3351 10.9288 15.3351H11.9288C12.0073 15.3351 12.0716 15.2708 12.0716 15.1922V13.6922H13.5716C13.6502 13.6922 13.7145 13.6279 13.7145 13.5494V12.5494C13.7145 12.4708 13.6502 12.4065 13.5716 12.4065Z" fill="#3D3D3D"/>
</svg>
