<svg width="14" height="16" viewBox="0 0 14 16" fill="none" xmlns="http://www.w3.org/2000/svg">
<path d="M9.96983 10.3241C10.402 10.092 10.8966 9.95982 11.4234 9.95982H11.4252C11.4788 9.95982 11.5038 9.89554 11.4645 9.85982C10.9166 9.36818 10.2908 8.97109 9.61268 8.68482C9.60554 8.68125 9.5984 8.67946 9.59126 8.67589C10.7002 7.87054 11.4216 6.56161 11.4216 5.08482C11.4216 2.63839 9.44304 0.65625 7.00197 0.65625C4.5609 0.65625 2.58411 2.63839 2.58411 5.08482C2.58411 6.56161 3.30554 7.87054 4.41626 8.67589C4.40911 8.67946 4.40197 8.68125 4.39483 8.68482C3.59661 9.02232 2.88054 9.50625 2.26447 10.1241C1.65196 10.7355 1.16432 11.4603 0.828755 12.258C0.4986 13.0392 0.320419 13.8762 0.303756 14.7241C0.303279 14.7432 0.306622 14.7621 0.313587 14.7799C0.320553 14.7976 0.331 14.8138 0.344313 14.8274C0.357627 14.8411 0.373537 14.8519 0.391106 14.8593C0.408675 14.8667 0.427548 14.8705 0.446613 14.8705H1.51626C1.59304 14.8705 1.65733 14.808 1.65911 14.7313C1.69483 13.3527 2.24661 12.0616 3.2234 11.083C4.23233 10.0705 5.57518 9.51339 7.00376 9.51339C8.01626 9.51339 8.98769 9.79375 9.82518 10.3188C9.8467 10.3323 9.8714 10.3399 9.89679 10.3408C9.92218 10.3418 9.94737 10.336 9.96983 10.3241ZM7.00376 8.15625C6.1859 8.15625 5.41626 7.83661 4.8359 7.25625C4.55035 6.97145 4.32398 6.63296 4.16983 6.26028C4.01567 5.88761 3.93677 5.48812 3.93768 5.08482C3.93768 4.26518 4.25733 3.49375 4.8359 2.91339C5.41447 2.33304 6.18411 2.01339 7.00376 2.01339C7.8234 2.01339 8.59126 2.33304 9.17161 2.91339C9.45716 3.1982 9.68353 3.53669 9.83768 3.90936C9.99184 4.28203 10.0707 4.68152 10.0698 5.08482C10.0698 5.90446 9.75018 6.67589 9.17161 7.25625C8.59126 7.83661 7.82161 8.15625 7.00376 8.15625ZM13.5716 12.4063H12.0716V10.9062C12.0716 10.8277 12.0073 10.7634 11.9288 10.7634H10.9288C10.8502 10.7634 10.7859 10.8277 10.7859 10.9062V12.4063H9.2859C9.20733 12.4063 9.14304 12.4705 9.14304 12.5491V13.5491C9.14304 13.6277 9.20733 13.692 9.2859 13.692H10.7859V15.192C10.7859 15.2705 10.8502 15.3348 10.9288 15.3348H11.9288C12.0073 15.3348 12.0716 15.2705 12.0716 15.192V13.692H13.5716C13.6502 13.692 13.7145 13.6277 13.7145 13.5491V12.5491C13.7145 12.4705 13.6502 12.4063 13.5716 12.4063Z" fill="white"/>
</svg>
