<svg width="20" height="20" viewBox="0 0 20 20" fill="none" xmlns="http://www.w3.org/2000/svg">
<path fill-rule="evenodd" clip-rule="evenodd" d="M11.7665 3.59738C11.1568 3.59738 10.6626 4.09161 10.6626 4.70128C10.6626 5.31094 11.1568 5.80517 11.7665 5.80517C12.3761 5.80517 12.8704 5.31094 12.8704 4.70128C12.8704 4.09161 12.3761 3.59738 11.7665 3.59738ZM9.33789 4.70128C9.33789 3.36001 10.4252 2.27271 11.7665 2.27271C13.1077 2.27271 14.195 3.36001 14.195 4.70128C14.195 6.04254 13.1077 7.12985 11.7665 7.12985C10.4252 7.12985 9.33789 6.04254 9.33789 4.70128Z" fill="#FAAD14"/>
<path fill-rule="evenodd" clip-rule="evenodd" d="M2.27246 4.70116C2.27246 4.33536 2.569 4.03882 2.9348 4.03882H9.99974C10.3655 4.03882 10.6621 4.33536 10.6621 4.70116C10.6621 5.06696 10.3655 5.36349 9.99974 5.36349H2.9348C2.569 5.36349 2.27246 5.06696 2.27246 4.70116Z" fill="#FAAD14"/>
<path fill-rule="evenodd" clip-rule="evenodd" d="M12.8701 4.70116C12.8701 4.33536 13.1667 4.03882 13.5325 4.03882H17.0649C17.4307 4.03882 17.7273 4.33536 17.7273 4.70116C17.7273 5.06696 17.4307 5.36349 17.0649 5.36349H13.5325C13.1667 5.36349 12.8701 5.06696 12.8701 4.70116Z" fill="#FAAD14"/>
<path fill-rule="evenodd" clip-rule="evenodd" d="M6.46764 8.89597C5.85797 8.89597 5.36374 9.3902 5.36374 9.99986C5.36374 10.6095 5.85797 11.1038 6.46764 11.1038C7.0773 11.1038 7.57153 10.6095 7.57153 9.99986C7.57153 9.3902 7.0773 8.89597 6.46764 8.89597ZM4.03906 9.99986C4.03906 8.6586 5.12637 7.57129 6.46764 7.57129C7.8089 7.57129 8.89621 8.6586 8.89621 9.99986C8.89621 11.3411 7.8089 12.4284 6.46764 12.4284C5.12637 12.4284 4.03906 11.3411 4.03906 9.99986Z" fill="#FAAD14"/>
<path fill-rule="evenodd" clip-rule="evenodd" d="M2.27246 9.99999C2.27246 9.63419 2.569 9.33765 2.9348 9.33765H4.70103C5.06683 9.33765 5.36337 9.63419 5.36337 9.99999C5.36337 10.3658 5.06683 10.6623 4.70103 10.6623H2.9348C2.569 10.6623 2.27246 10.3658 2.27246 9.99999Z" fill="#FAAD14"/>
<path fill-rule="evenodd" clip-rule="evenodd" d="M7.57129 9.99999C7.57129 9.63419 7.86783 9.33765 8.23363 9.33765H17.0648C17.4306 9.33765 17.7271 9.63419 17.7271 9.99999C17.7271 10.3658 17.4306 10.6623 17.0648 10.6623H8.23363C7.86783 10.6623 7.57129 10.3658 7.57129 9.99999Z" fill="#FAAD14"/>
<path fill-rule="evenodd" clip-rule="evenodd" d="M14.4149 14.1948C13.8052 14.1948 13.311 14.689 13.311 15.2987C13.311 15.9084 13.8052 16.4026 14.4149 16.4026C15.0246 16.4026 15.5188 15.9084 15.5188 15.2987C15.5188 14.689 15.0246 14.1948 14.4149 14.1948ZM11.9863 15.2987C11.9863 13.9574 13.0736 12.8701 14.4149 12.8701C15.7562 12.8701 16.8435 13.9574 16.8435 15.2987C16.8435 16.64 15.7562 17.7273 14.4149 17.7273C13.0736 17.7273 11.9863 16.64 11.9863 15.2987Z" fill="#FAAD14"/>
<path fill-rule="evenodd" clip-rule="evenodd" d="M2.27246 15.2986C2.27246 14.9328 2.569 14.6362 2.9348 14.6362H12.6491C13.0149 14.6362 13.3114 14.9328 13.3114 15.2986C13.3114 15.6644 13.0149 15.9609 12.6491 15.9609H2.9348C2.569 15.9609 2.27246 15.6644 2.27246 15.2986Z" fill="#FAAD14"/>
<path fill-rule="evenodd" clip-rule="evenodd" d="M15.5195 15.2986C15.5195 14.9328 15.8161 14.6362 16.1819 14.6362H17.065C17.4308 14.6362 17.7273 14.9328 17.7273 15.2986C17.7273 15.6644 17.4308 15.9609 17.065 15.9609H16.1819C15.8161 15.9609 15.5195 15.6644 15.5195 15.2986Z" fill="#FAAD14"/>
</svg>
