<svg width="20" height="20" viewBox="0 0 20 20" fill="none" xmlns="http://www.w3.org/2000/svg">
<path d="M8.71401 0.144531H0.57115C0.335435 0.144531 0.142578 0.337388 0.142578 0.573103V8.71596C0.142578 8.95167 0.335435 9.14453 0.57115 9.14453H8.71401C8.94972 9.14453 9.14258 8.95167 9.14258 8.71596V0.573103C9.14258 0.337388 8.94972 0.144531 8.71401 0.144531ZM7.32115 7.3231H1.96401V1.96596H7.32115V7.3231ZM19.4283 0.144531H11.2854C11.0497 0.144531 10.8569 0.337388 10.8569 0.573103V8.71596C10.8569 8.95167 11.0497 9.14453 11.2854 9.14453H19.4283C19.664 9.14453 19.8569 8.95167 19.8569 8.71596V0.573103C19.8569 0.337388 19.664 0.144531 19.4283 0.144531ZM18.0354 7.3231H12.6783V1.96596H18.0354V7.3231ZM8.71401 10.8588H0.57115C0.335435 10.8588 0.142578 11.0517 0.142578 11.2874V19.4302C0.142578 19.666 0.335435 19.8588 0.57115 19.8588H8.71401C8.94972 19.8588 9.14258 19.666 9.14258 19.4302V11.2874C9.14258 11.0517 8.94972 10.8588 8.71401 10.8588ZM7.32115 18.0374H1.96401V12.6802H7.32115V18.0374ZM19.4283 10.8588H11.2854C11.0497 10.8588 10.8569 11.0517 10.8569 11.2874V19.4302C10.8569 19.666 11.0497 19.8588 11.2854 19.8588H19.4283C19.664 19.8588 19.8569 19.666 19.8569 19.4302V11.2874C19.8569 11.0517 19.664 10.8588 19.4283 10.8588ZM18.0354 18.0374H12.6783V12.6802H18.0354V18.0374Z" fill="#A6A6A6"/>
</svg>
