<svg width="16" height="16" viewBox="0 0 16 16" fill="none" xmlns="http://www.w3.org/2000/svg">
<path d="M8.42992 3.73103H7.57099C7.49242 3.73103 7.42813 3.79532 7.42813 3.87389V8.78996C7.42813 8.83639 7.44956 8.87924 7.48706 8.90603L10.4388 11.0614C10.5031 11.1078 10.5924 11.0953 10.6388 11.031L11.1496 10.3346C11.1978 10.2685 11.1835 10.1792 11.1192 10.1346L8.57277 8.29353V3.87389C8.57277 3.79532 8.50849 3.73103 8.42992 3.73103ZM12.3549 5.07389L15.1549 5.75782C15.2442 5.77924 15.3317 5.71139 15.3317 5.62032L15.346 2.73639C15.346 2.61674 15.2085 2.54889 15.1156 2.62389L12.3013 4.8221C12.2801 4.83855 12.2639 4.86068 12.2546 4.88593C12.2454 4.91117 12.2434 4.93852 12.249 4.96482C12.2546 4.99113 12.2675 5.01532 12.2863 5.03461C12.305 5.0539 12.3288 5.06752 12.3549 5.07389ZM15.3496 10.4507L14.3371 10.1025C14.3018 10.0904 14.2631 10.0926 14.2294 10.1086C14.1957 10.1246 14.1696 10.1532 14.1567 10.1882C14.1228 10.2792 14.0871 10.3685 14.0496 10.4578C13.7317 11.2096 13.2763 11.8864 12.6942 12.4667C12.1185 13.0442 11.4363 13.5045 10.6853 13.8221C9.90729 14.151 9.07101 14.3199 8.22635 14.3185C7.37278 14.3185 6.54599 14.1525 5.76742 13.8221C5.01642 13.5045 4.33417 13.0442 3.75849 12.4667C3.17813 11.8864 2.72277 11.2096 2.40313 10.4578C2.07602 9.67939 1.90842 8.84325 1.91027 7.99889C1.91027 7.14532 2.07635 6.31674 2.4067 5.53817C2.72456 4.78639 3.17992 4.1096 3.76206 3.52924C4.33774 2.95178 5.01999 2.49149 5.77099 2.17389C6.54599 1.84353 7.37456 1.67746 8.22813 1.67746C9.0817 1.67746 9.90849 1.84353 10.6871 2.17389C11.4381 2.49149 12.1203 2.95178 12.696 3.52924C12.8781 3.71317 13.0496 3.90424 13.2067 4.10603L14.2746 3.27032C12.8692 1.47389 10.6817 0.318529 8.22456 0.320315C3.94599 0.3221 0.510274 3.7971 0.553131 8.07746C0.595988 12.2828 4.01563 15.6775 8.22813 15.6775C11.5406 15.6775 14.3621 13.5775 15.4371 10.6364C15.4638 10.5614 15.4246 10.4775 15.3496 10.4507Z" fill="white"/>
</svg>
