<svg width="18" height="15" viewBox="0 0 18 15" fill="none" xmlns="http://www.w3.org/2000/svg">
<path d="M15.25 1.875H13.084L12.0196 0.27832C11.9625 0.192706 11.8852 0.122507 11.7945 0.0739545C11.7037 0.0254022 11.6024 -1.16211e-06 11.4995 0H6.49954C6.39665 -1.09327e-06 6.29535 0.0254022 6.20463 0.0739545C6.11392 0.122507 6.03659 0.192706 5.97952 0.27832L4.91507 1.875H2.75C2.25289 1.87557 1.77631 2.0733 1.4248 2.4248C1.0733 2.77631 0.875569 3.25289 0.875 3.75V12.5C0.875569 12.9971 1.0733 13.4737 1.4248 13.8252C1.77631 14.1767 2.25289 14.3744 2.75 14.375H15.25C15.7471 14.3744 16.2237 14.1767 16.5752 13.8252C16.9267 13.4737 17.1244 12.9971 17.125 12.5V3.75C17.1244 3.25289 16.9267 2.77631 16.5752 2.4248C16.2237 2.0733 15.7471 1.87557 15.25 1.875ZM11.8125 7.8125C11.8125 8.36876 11.6476 8.91253 11.3385 9.37504C11.0295 9.83756 10.5902 10.198 10.0763 10.4109C9.56238 10.6238 8.99688 10.6795 8.45131 10.571C7.90574 10.4624 7.4046 10.1946 7.01126 9.80124C6.61793 9.4079 6.35006 8.90676 6.24154 8.36119C6.13302 7.81562 6.18872 7.25012 6.40159 6.7362C6.61446 6.22229 6.97495 5.78303 7.43746 5.47399C7.89997 5.16495 8.44374 5 9 5C9.74567 5.00084 10.4606 5.29742 10.9878 5.82469C11.5151 6.35195 11.8117 7.06684 11.8125 7.8125Z" fill="#EDEDED"/>
</svg>
