<svg width="21" height="16" viewBox="0 0 21 16" fill="none" xmlns="http://www.w3.org/2000/svg">
<path d="M1.64721 1.09421C1.53361 1.14521 1.37681 1.26661 1.28661 1.36861C0.976813 1.72141 1.00041 1.16481 1.00041 8.25201C1.00041 15.2804 0.980813 14.7826 1.25921 15.108C1.33761 15.1982 1.48261 15.3158 1.58061 15.3784L1.76481 15.4842L6.46081 15.496L11.1568 15.5038L20.5022 15.3784C20.5022 15.1846 20.5022 15.0055 20.5022 14.8766H11.1216H6.49221H1.86681L1.75701 14.7824L1.64721 14.6884V8.25201V1.81541L1.75701 1.72141L1.86681 1.62741H4.61081H7.35081L9.40481 2.66621L11.455 3.70501H15.5944H19.7338L19.8436 3.79901L19.9534 3.89301L19.973 6.60561L20.0507 14.8766H20.1001C20.2255 14.9786 20.3886 14.9942 20.5022 14.8766L20.6002 9.27501V6.63301C20.6002 3.68141 20.608 3.77941 20.3218 3.45401C20.2356 3.36001 20.0748 3.23441 19.965 3.17961L19.7612 3.07761H15.6922H11.6234L9.54981 2.03881L7.47221 1.00001H4.65761H1.84321L1.64721 1.09421Z" fill="white"/>
<path d="M20.5022 14.8766C20.5022 15.0055 20.5022 15.1846 20.5022 15.3784L11.1568 15.5038L6.46081 15.496L1.76481 15.4842L1.58061 15.3784C1.48261 15.3158 1.33761 15.1982 1.25921 15.108C0.980813 14.7826 1.00041 15.2804 1.00041 8.25201C1.00041 1.16481 0.976813 1.72141 1.28661 1.36861C1.37681 1.26661 1.53361 1.14521 1.64721 1.09421L1.84321 1.00001H4.65761H7.47221L9.54981 2.03881L11.6234 3.07761H15.6922H19.7612L19.965 3.17961C20.0748 3.23441 20.2356 3.36001 20.3218 3.45401C20.608 3.77941 20.6002 3.68141 20.6002 6.63301V9.27501L20.5022 14.8766ZM20.5022 14.8766H11.1216H6.49221H1.86681L1.75701 14.7824L1.64721 14.6884V8.25201V1.81541L1.75701 1.72141L1.86681 1.62741H4.61081H7.35081L9.40481 2.66621L11.455 3.70501H15.5944H19.7338L19.8436 3.79901L19.9534 3.89301L19.973 6.60561L20.0507 14.8766H20.1001C20.2255 14.9786 20.3886 14.9942 20.5022 14.8766Z" stroke="white" stroke-width="0.5"/>
</svg>
