<svg width="16" height="16" viewBox="0 0 16 16" fill="none" xmlns="http://www.w3.org/2000/svg">
<path d="M10.7088 5.52905C10.7088 5.4603 10.6525 5.40405 10.5838 5.40405L9.55254 5.40874L7.99941 7.2603L6.44785 5.4103L5.41504 5.40562C5.34629 5.40562 5.29004 5.4603 5.29004 5.53062C5.29004 5.5603 5.30098 5.58843 5.31973 5.61187L7.35254 8.03374L5.31973 10.4541C5.30085 10.477 5.29037 10.5056 5.29004 10.5353C5.29004 10.6041 5.34629 10.6603 5.41504 10.6603L6.44785 10.6556L7.99941 8.80405L9.55098 10.6541L10.5822 10.6587C10.651 10.6587 10.7072 10.6041 10.7072 10.5337C10.7072 10.5041 10.6963 10.4759 10.6775 10.4525L8.64785 8.03218L10.6807 5.6103C10.6994 5.58843 10.7088 5.55874 10.7088 5.52905Z" fill="#EDEDED"/>
<path d="M8 1C4.13438 1 1 4.13438 1 8C1 11.8656 4.13438 15 8 15C11.8656 15 15 11.8656 15 8C15 4.13438 11.8656 1 8 1ZM8 13.8125C4.79063 13.8125 2.1875 11.2094 2.1875 8C2.1875 4.79063 4.79063 2.1875 8 2.1875C11.2094 2.1875 13.8125 4.79063 13.8125 8C13.8125 11.2094 11.2094 13.8125 8 13.8125Z" fill="#EDEDED"/>
</svg>
