<svg width="14" height="14" viewBox="0 0 14 14" fill="none" xmlns="http://www.w3.org/2000/svg">
<g clip-path="url(#clip0)">
<path d="M11.9996 0H3.62464C3.55589 0 3.49964 0.05625 3.49964 0.125V1C3.49964 1.06875 3.55589 1.125 3.62464 1.125H11.3746V11.875C11.3746 11.9438 11.4309 12 11.4996 12H12.3746C12.4434 12 12.4996 11.9438 12.4996 11.875V0.5C12.4996 0.223437 12.2762 0 11.9996 0ZM9.99964 2H1.99964C1.72308 2 1.49964 2.22344 1.49964 2.5V10.7922C1.49964 10.925 1.55277 11.0516 1.64652 11.1453L4.35433 13.8531C4.3887 13.8875 4.42777 13.9156 4.46995 13.9391V13.9688H4.53558C4.59027 13.9891 4.64808 14 4.70745 14H9.99964C10.2762 14 10.4996 13.7766 10.4996 13.5V2.5C10.4996 2.22344 10.2762 2 9.99964 2ZM4.46839 12.3781L3.12308 11.0312H4.46839V12.3781ZM9.37464 12.875H5.46839V10.6562C5.46839 10.3109 5.1887 10.0312 4.84339 10.0312H2.62464V3.125H9.37464V12.875Z" fill="#1F2933"/>
</g>
<defs>
<clipPath id="clip0">
<rect width="14" height="14" fill="white"/>
</clipPath>
</defs>
</svg>
