<svg width="19" height="19" viewBox="0 0 19 19" fill="none" xmlns="http://www.w3.org/2000/svg">
<path d="M13.4018 8.82142H10.1786V5.5982C10.1786 5.5049 10.1022 5.42856 10.0089 5.42856H8.99106C8.89775 5.42856 8.82142 5.5049 8.82142 5.5982V8.82142H5.5982C5.5049 8.82142 5.42856 8.89775 5.42856 8.99106V10.0089C5.42856 10.1022 5.5049 10.1786 5.5982 10.1786H8.82142V13.4018C8.82142 13.4951 8.89775 13.5714 8.99106 13.5714H10.0089C10.1022 13.5714 10.1786 13.4951 10.1786 13.4018V10.1786H13.4018C13.4951 10.1786 13.5714 10.1022 13.5714 10.0089V8.99106C13.5714 8.89775 13.4951 8.82142 13.4018 8.82142Z" fill="white"/>
<path d="M9.5 0C4.25379 0 0 4.25379 0 9.5C0 14.7462 4.25379 19 9.5 19C14.7462 19 19 14.7462 19 9.5C19 4.25379 14.7462 0 9.5 0ZM9.5 17.3884C5.14442 17.3884 1.61161 13.8556 1.61161 9.5C1.61161 5.14442 5.14442 1.61161 9.5 1.61161C13.8556 1.61161 17.3884 5.14442 17.3884 9.5C17.3884 13.8556 13.8556 17.3884 9.5 17.3884Z" fill="white"/>
</svg>
