<svg width="16" height="16" viewBox="0 0 16 16" fill="none" xmlns="http://www.w3.org/2000/svg">
<path d="M8.43187 3.73103H7.57294C7.49437 3.73103 7.43009 3.79532 7.43009 3.87389V8.78996C7.43009 8.83639 7.45151 8.87924 7.48901 8.90603L10.4408 11.0614C10.5051 11.1078 10.5944 11.0953 10.6408 11.031L11.1515 10.3346C11.1997 10.2685 11.1854 10.1792 11.1212 10.1346L8.57473 8.29353V3.87389C8.57473 3.79532 8.51044 3.73103 8.43187 3.73103ZM12.3569 5.07389L15.1569 5.75782C15.2462 5.77924 15.3337 5.71139 15.3337 5.62032L15.3479 2.73639C15.3479 2.61674 15.2104 2.54889 15.1176 2.62389L12.3033 4.8221C12.282 4.83855 12.2658 4.86068 12.2566 4.88593C12.2473 4.91117 12.2454 4.93852 12.251 4.96482C12.2566 4.99113 12.2695 5.01532 12.2882 5.03461C12.3069 5.0539 12.3307 5.06752 12.3569 5.07389ZM15.3515 10.4507L14.339 10.1025C14.3037 10.0904 14.2651 10.0926 14.2314 10.1086C14.1977 10.1246 14.1716 10.1532 14.1587 10.1882C14.1247 10.2792 14.089 10.3685 14.0515 10.4578C13.7337 11.2096 13.2783 11.8864 12.6962 12.4667C12.1205 13.0442 11.4382 13.5045 10.6872 13.8221C9.90924 14.151 9.07296 14.3199 8.2283 14.3185C7.37473 14.3185 6.54794 14.1525 5.76937 13.8221C5.01837 13.5045 4.33612 13.0442 3.76044 12.4667C3.18008 11.8864 2.72473 11.2096 2.40508 10.4578C2.07797 9.67939 1.91038 8.84325 1.91223 7.99889C1.91223 7.14532 2.0783 6.31674 2.40866 5.53817C2.72651 4.78639 3.18187 4.1096 3.76401 3.52924C4.33969 2.95178 5.02194 2.49149 5.77294 2.17389C6.54794 1.84353 7.37651 1.67746 8.23009 1.67746C9.08366 1.67746 9.91044 1.84353 10.689 2.17389C11.44 2.49149 12.1223 2.95178 12.6979 3.52924C12.8801 3.71317 13.0515 3.90424 13.2087 4.10603L14.2765 3.27032C12.8712 1.47389 10.6837 0.318529 8.22651 0.320315C3.94794 0.3221 0.512227 3.7971 0.555084 8.07746C0.597941 12.2828 4.01758 15.6775 8.23009 15.6775C11.5426 15.6775 14.364 13.5775 15.439 10.6364C15.4658 10.5614 15.4265 10.4775 15.3515 10.4507Z" fill="#5E5E5E"/>
</svg>
