<svg width="14" height="14" viewBox="0 0 14 14" fill="none" xmlns="http://www.w3.org/2000/svg">
<path fill-rule="evenodd" clip-rule="evenodd" d="M12.5068 0.500092C12.241 0.500092 11.9862 0.60562 11.7982 0.793481L12.1522 1.14779L11.7981 0.793597L11.089 1.50265C10.8934 1.69825 10.8934 2.01537 11.0889 2.21102L11.798 2.92038C11.8919 3.01438 12.0194 3.06719 12.1523 3.06719C12.2852 3.06719 12.4126 3.01438 12.5066 2.92038L13.2156 2.21102L13.2157 2.21098C13.4035 2.023 13.5091 1.76811 13.5091 1.50235C13.5091 1.23658 13.4035 0.981697 13.2157 0.793713L12.8613 1.14782L13.2154 0.793481C13.0275 0.60562 12.7726 0.500092 12.5068 0.500092ZM12.1516 1.85695L12.5064 1.50216L12.507 1.50277L12.1523 1.85764L12.1516 1.85695ZM10.7365 2.56081C10.6425 2.4668 10.5149 2.41401 10.382 2.41409C10.249 2.41416 10.1215 2.46709 10.0276 2.56121L1.36543 11.2428C1.32859 11.2797 1.29773 11.3222 1.27399 11.3686L0.555085 12.7752C0.456206 12.9686 0.493303 13.2038 0.646938 13.3574C0.800573 13.511 1.03572 13.5481 1.22917 13.4492L2.63541 12.7303C2.68185 12.7066 2.72429 12.6757 2.76121 12.6389L11.4431 3.97669C11.5372 3.88278 11.5901 3.7553 11.5902 3.62235C11.5903 3.48939 11.5375 3.36185 11.4435 3.26784L10.7365 2.56081Z" fill="#F3F3F3"/>
</svg>
