<svg width="18" height="18" viewBox="0 0 18 18" fill="none" xmlns="http://www.w3.org/2000/svg">
<path d="M8.99199 17.3337C4.39071 17.3291 0.663929 13.5961 0.666994 8.99477C0.670063 4.39349 4.40182 0.665461 9.0031 0.666993C13.6044 0.668525 17.3337 4.39903 17.3337 9.00033C17.3309 13.6048 13.5965 17.3355 8.99199 17.3337ZM2.33366 9.14366C2.37309 12.8114 5.36792 15.7583 9.03578 15.7387C12.7036 15.7188 15.6666 12.7399 15.6666 9.07199C15.6666 5.40408 12.7036 2.42513 9.03578 2.40532C5.36792 2.3857 2.37309 5.33262 2.33366 9.00032V9.14366ZM9.83366 13.167H8.16699V11.5003H9.83366V13.167ZM9.83366 9.83366H8.16699V4.83366H9.83366V9.83366Z" fill="white"/>
</svg>
