<svg width="14" height="14" viewBox="-12 0 35 16" fill="none" xmlns="http://www.w3.org/2000/svg">
<path d="M13.722 6.59635C13.1727 5.43916 12.5191 4.49541 11.761 3.7651L10.966 4.5601C11.6143 5.17963 12.179 5.9901 12.6673 6.99947C11.3673 9.6901 9.52197 10.9682 7.00009 10.9682C6.24311 10.9682 5.54587 10.8517 4.90837 10.6185L4.04697 11.4799C4.93238 11.8888 5.91676 12.0932 7.00009 12.0932C10.0032 12.0932 12.2438 10.5292 13.722 7.40104C13.7814 7.27523 13.8122 7.13783 13.8122 6.99869C13.8122 6.85956 13.7814 6.72215 13.722 6.59635V6.59635ZM12.7287 1.58635L12.0626 0.919473C12.051 0.907851 12.0372 0.898631 12.022 0.892341C12.0068 0.88605 11.9906 0.882813 11.9742 0.882812C11.9577 0.882813 11.9415 0.88605 11.9263 0.892341C11.9111 0.898631 11.8973 0.907851 11.8857 0.919473L10.1768 2.6276C9.23462 2.14635 8.17572 1.90572 7.00009 1.90572C3.99697 1.90572 1.75634 3.46979 0.278215 6.59791C0.218802 6.72372 0.187988 6.86112 0.187988 7.00026C0.187988 7.13939 0.218802 7.27679 0.278215 7.4026C0.868736 8.64635 1.57967 9.64328 2.41103 10.3934L0.75759 12.0463C0.734166 12.0698 0.721008 12.1016 0.721008 12.1347C0.721008 12.1678 0.734166 12.1996 0.75759 12.2231L1.42462 12.8901C1.44806 12.9135 1.47984 12.9267 1.51298 12.9267C1.54612 12.9267 1.5779 12.9135 1.60134 12.8901L12.7287 1.76322C12.7403 1.75161 12.7495 1.73783 12.7558 1.72265C12.7621 1.70748 12.7653 1.69121 12.7653 1.67479C12.7653 1.65836 12.7621 1.64209 12.7558 1.62692C12.7495 1.61174 12.7403 1.59796 12.7287 1.58635ZM1.3329 6.99947C2.63447 4.30885 4.47978 3.03072 7.00009 3.03072C7.85228 3.03072 8.62712 3.17697 9.33009 3.47432L8.23165 4.57276C7.71145 4.2952 7.11581 4.19219 6.5326 4.27892C5.94939 4.36565 5.4095 4.63754 4.99258 5.05446C4.57565 5.47139 4.30377 6.01128 4.21704 6.59448C4.1303 7.17769 4.23331 7.77333 4.51087 8.29354L3.20743 9.59697C2.48603 8.96026 1.86415 8.0976 1.3329 6.99947ZM5.18759 6.99947C5.18786 6.72395 5.25313 6.45238 5.37808 6.20681C5.50303 5.96125 5.68414 5.74862 5.9067 5.58621C6.12927 5.42379 6.387 5.31616 6.65898 5.27207C6.93095 5.22798 7.20949 5.24866 7.47197 5.33244L5.27056 7.53385C5.21538 7.3611 5.18739 7.18082 5.18759 6.99947V6.99947Z" fill="white"/>
<path d="M6.93786 8.75109C6.8838 8.75109 6.83052 8.74859 6.7777 8.74375L5.95239 9.56906C6.44878 9.75916 6.98961 9.80141 7.5095 9.69069C8.02939 9.57997 8.50608 9.32103 8.88194 8.94517C9.2578 8.56931 9.51674 8.09262 9.62746 7.57273C9.73818 7.05285 9.69593 6.51202 9.50583 6.01562L8.68052 6.84094C8.68536 6.89375 8.68786 6.94703 8.68786 7.00109C8.68798 7.23094 8.6428 7.45856 8.5549 7.67094C8.467 7.88331 8.3381 8.07628 8.17557 8.23881C8.01305 8.40133 7.82008 8.53023 7.6077 8.61813C7.39533 8.70604 7.16771 8.75122 6.93786 8.75109V8.75109Z" fill="white"/>
</svg>
