<svg width="20" height="22" viewBox="0 0 20 22" fill="none" xmlns="http://www.w3.org/2000/svg">
<path d="M17.1597 2.55647C14.6365 0.0332589 10.5276 0.0332589 8.00703 2.55647L1.01596 9.54219C0.970421 9.58772 0.946314 9.64933 0.946314 9.71362C0.946314 9.7779 0.970421 9.83951 1.01596 9.88505L2.00435 10.8734C2.04953 10.9184 2.11069 10.9437 2.17444 10.9437C2.23819 10.9437 2.29935 10.9184 2.34453 10.8734L9.3356 3.88772C10.2035 3.01987 11.3579 2.54308 12.5847 2.54308C13.8115 2.54308 14.966 3.01987 15.8311 3.88772C16.699 4.75558 17.1758 5.91004 17.1758 7.13415C17.1758 8.36094 16.699 9.51272 15.8311 10.3806L8.70613 17.5029L7.55167 18.6574C6.47221 19.7368 4.71774 19.7368 3.63828 18.6574C3.11596 18.135 2.82935 17.4413 2.82935 16.702C2.82935 15.9627 3.11596 15.269 3.63828 14.7467L10.707 7.68058C10.8865 7.50379 11.1222 7.40469 11.374 7.40469H11.3767C11.6285 7.40469 11.8615 7.50379 12.0383 7.68058C12.2177 7.86004 12.3142 8.09576 12.3142 8.34754C12.3142 8.59665 12.2151 8.83237 12.0383 9.00915L6.2606 14.7815C6.21506 14.827 6.19096 14.8886 6.19096 14.9529C6.19096 15.0172 6.21506 15.0788 6.2606 15.1243L7.24899 16.1127C7.29417 16.1577 7.35533 16.183 7.41908 16.183C7.48283 16.183 7.54399 16.1577 7.58917 16.1127L13.3642 10.3377C13.8972 9.80469 14.1892 9.09754 14.1892 8.34487C14.1892 7.59219 13.8945 6.88237 13.3642 6.35201C12.2633 5.25112 10.474 5.25379 9.3731 6.35201L8.68738 7.0404L2.30703 13.4181C1.87399 13.8486 1.53072 14.3608 1.29714 14.925C1.06356 15.4891 0.944313 16.0941 0.946314 16.7047C0.946314 17.9449 1.43114 19.11 2.30703 19.9859C3.21506 20.8913 4.40435 21.344 5.59364 21.344C6.78292 21.344 7.97221 20.8913 8.87756 19.9859L17.1597 11.7092C18.3785 10.4877 19.0535 8.86183 19.0535 7.13415C19.0561 5.40379 18.3811 3.7779 17.1597 2.55647Z" fill="#A6A6A6"/>
</svg>
