<svg width="21" height="15" viewBox="0 0 21 15" fill="none" xmlns="http://www.w3.org/2000/svg">
<path d="M1.43023 15C1.06473 15 0.734981 14.8555 0.440988 14.5664C0.146996 14.2773 0 13.9531 0 13.5938V1.40625C0 1.04688 0.146996 0.722656 0.440988 0.433594C0.734981 0.144531 1.06473 0 1.43023 0H8.12849L9.55872 1.40625H17.6395C18.005 1.40625 18.3348 1.55078 18.6288 1.83984C18.9228 2.12891 19.0698 2.45313 19.0698 2.8125H8.93895L7.50872 1.40625H1.43023V13.5938L3.86163 4.21875H20.5L17.9494 13.9219C17.8541 14.2969 17.6793 14.5703 17.425 14.7422C17.1707 14.9141 16.845 15 16.4477 15H1.43023ZM2.93198 13.5938H16.5669L18.5692 5.625H4.9343L2.93198 13.5938ZM2.93198 13.5938L4.9343 5.625L2.93198 13.5938ZM1.43023 2.8125V1.40625V2.8125Z" fill="#A6A6A6"/>
</svg>
