<svg width="20" height="18" viewBox="0 0 20 18" fill="none" xmlns="http://www.w3.org/2000/svg">
<path d="M8.35339 0.6465L8.35345 0.646553L10.0604 2.35355L10.2069 2.5H10.414H18C18.8284 2.5 19.5 3.17157 19.5 4V16C19.5 16.8284 18.8284 17.5 18 17.5H2C1.17157 17.5 0.5 16.8284 0.5 16V2C0.5 1.17157 1.17157 0.5 2 0.5H8C8.13245 0.5 8.25959 0.552671 8.35339 0.6465ZM2 3.5H1.5V4V16V16.5H2H18H18.5V16V4V3.5H18H2ZM11 9.5H13.5V10.5H11H10.5V11V13.5H9.5V11V10.5H9H6.5V9.5H9H9.5V9V6.5H10.5V9V9.5H11Z" fill="#5E5E5E" stroke="#5E5E5E"/>
</svg>
