<svg width="18" height="18" viewBox="0 0 18 18" fill="none" xmlns="http://www.w3.org/2000/svg">
<path d="M9.00033 17.3332C4.39795 17.3332 0.666992 13.6022 0.666992 8.99984C0.666992 4.39746 4.39795 0.666504 9.00033 0.666504C13.6027 0.666504 17.3337 4.39746 17.3337 8.99984C17.3286 13.6001 13.6006 17.3281 9.00033 17.3332ZM9.00033 2.33317C5.31843 2.33317 2.33366 5.31794 2.33366 8.99984C2.33366 12.6817 5.31843 15.6665 9.00033 15.6665C12.6822 15.6665 15.667 12.6817 15.667 8.99984C15.6629 5.31965 12.6805 2.3373 9.00033 2.33317ZM9.00033 13.9998C7.68368 14.0221 6.43916 13.3999 5.66699 12.3332C5.29206 11.8318 5.00983 11.2673 4.83366 10.6665H13.167C13.167 10.6665 13.167 10.6665 13.167 10.6732C12.9881 11.2708 12.7061 11.8326 12.3337 12.3332C11.5614 13.3997 10.3169 14.022 9.00033 13.9998ZM6.08366 8.99984C5.3933 8.99984 4.83366 8.44019 4.83366 7.74984C4.83366 7.05948 5.3933 6.49984 6.08366 6.49984C6.77401 6.49984 7.33366 7.05948 7.33366 7.74984C7.33366 8.44019 6.77401 8.99984 6.08366 8.99984ZM11.9112 8.98817C11.224 8.98817 10.667 8.43114 10.667 7.744C10.667 7.05687 11.224 6.49984 11.9112 6.49984C12.5983 6.49984 13.1553 7.05687 13.1553 7.744C13.1544 8.43076 12.5979 8.98725 11.9112 8.98817Z" fill="#5E5E5E"/>
</svg>
