<svg width="18" height="18" viewBox="0 0 18 18" fill="none" xmlns="http://www.w3.org/2000/svg">
<path d="M9.00033 17.3337C4.39795 17.3337 0.666992 13.6027 0.666992 9.00033C0.666992 4.39795 4.39795 0.666992 9.00033 0.666992C13.6027 0.666992 17.3337 4.39795 17.3337 9.00033C17.3286 13.6006 13.6006 17.3286 9.00033 17.3337ZM9.00033 2.33366C5.31843 2.33366 2.33366 5.31843 2.33366 9.00033C2.33366 12.6822 5.31843 15.667 9.00033 15.667C12.6822 15.667 15.667 12.6822 15.667 9.00033C15.6629 5.32014 12.6805 2.33779 9.00033 2.33366ZM9.00033 14.0003C7.68368 14.0226 6.43916 13.4003 5.66699 12.3337C5.29206 11.8322 5.00983 11.2678 4.83366 10.667H13.167C13.167 10.667 13.167 10.667 13.167 10.6737C12.9881 11.2713 12.7061 11.8331 12.3337 12.3337C11.5614 13.4002 10.3169 14.0225 9.00033 14.0003ZM6.08366 9.00033C5.3933 9.00033 4.83366 8.44068 4.83366 7.75033C4.83366 7.05997 5.3933 6.50033 6.08366 6.50033C6.77401 6.50033 7.33366 7.05997 7.33366 7.75033C7.33366 8.44068 6.77401 9.00033 6.08366 9.00033ZM11.9112 8.98866C11.224 8.98866 10.667 8.43163 10.667 7.74449C10.667 7.05736 11.224 6.50033 11.9112 6.50033C12.5983 6.50033 13.1553 7.05736 13.1553 7.74449C13.1544 8.43125 12.5979 8.98774 11.9112 8.98866Z" fill="#B7B7B7"/>
</svg>
