<svg width="21" height="20" viewBox="0 0 21 20" fill="none" xmlns="http://www.w3.org/2000/svg">
<path d="M15.4933 4.99519C15.3282 7.19546 13.6395 8.99038 11.7857 8.99038C9.93194 8.99038 8.24035 7.19588 8.07814 4.99519C7.90961 2.70628 9.55275 1 11.7857 1C14.0187 1 15.6619 2.7479 15.4933 4.99519Z" stroke="white" stroke-width="1.5625" stroke-linecap="round" stroke-linejoin="round"/>
<path d="M11.7858 11.6538C8.12028 11.6538 4.40003 13.6514 3.7116 17.4219C3.62733 17.8764 3.88897 18.3125 4.37096 18.3125H19.201C19.683 18.3125 19.9433 17.8764 19.8603 17.4219C19.1715 13.6514 15.4512 11.6538 11.7858 11.6538Z" stroke="white" stroke-width="1.5625" stroke-miterlimit="10"/>
<path d="M5.71877 8.65746H1M3.35939 6.32693V10.988V6.32693Z" stroke="white" stroke-width="1.5625" stroke-linecap="round" stroke-linejoin="round"/>
</svg>
