<svg width="36" height="36" viewBox="0 0 36 36" fill="none" xmlns="http://www.w3.org/2000/svg">
<g clip-path="url(#clip0)">
<path d="M17.4802 1.14781L0.629307 34.7572C0.561003 34.8938 0.544932 35.0505 0.581093 35.1992C0.621881 35.3641 0.726385 35.5063 0.871724 35.5944C1.01706 35.6825 1.19139 35.7094 1.35654 35.6692L15.5074 32.2058C15.7204 32.1536 15.8931 31.9969 15.9614 31.788L17.9985 25.8536L20.0356 31.784C20.1079 31.9929 20.2766 32.1496 20.4896 32.1978L34.6606 35.6692C34.8092 35.7054 34.9659 35.6893 35.0985 35.621C35.4159 35.4643 35.5445 35.0786 35.3878 34.7572L18.6333 1.14781C18.5731 1.02326 18.4686 0.922813 18.3481 0.858527C18.0266 0.701831 17.6409 0.830402 17.4802 1.14781ZM30.6347 31.7076L22.3739 29.6867L18.3039 17.8259C18.2717 17.7335 18.1994 17.6572 18.103 17.625C17.9342 17.5688 17.7534 17.6572 17.6931 17.8259L13.6271 29.6867L5.3985 31.6996L18.0507 6.46746L30.6347 31.7076Z" fill="#2A5298"/>
</g>
<defs>
<clipPath id="clip0">
<rect width="36" height="36" fill="white" transform="translate(0 36) rotate(-90)"/>
</clipPath>
</defs>
</svg>
