<svg width="21" height="16" viewBox="0 0 21 16" fill="none" xmlns="http://www.w3.org/2000/svg">
<path fill-rule="evenodd" clip-rule="evenodd" d="M6.825 8C8.85517 8 10.5 6.20971 10.5 4C10.5 1.79029 8.85517 0 6.825 0C4.79482 0 3.15 1.79029 3.15 4C3.15 6.20971 4.79482 8 6.825 8ZM9.45 4C9.45 5.57886 8.27557 6.85714 6.825 6.85714C5.37442 6.85714 4.2 5.57886 4.2 4C4.2 2.42114 5.37442 1.14286 6.825 1.14286C8.27557 1.14286 9.45 2.42114 9.45 4ZM0 16V12.8C0 10.368 4.54702 9.14286 6.825 9.14286C8.34015 9.14286 10.8596 9.68514 12.3769 10.764C13.4584 10.4457 14.6443 10.2857 15.4875 10.2857C16.4629 10.2857 17.7718 10.4994 18.8527 10.9314C19.3914 11.1474 19.9075 11.4309 20.2975 11.7977C20.6908 12.1674 21 12.6674 21 13.2949V16H0ZM1.05 12.8C1.05 12.6189 1.12665 12.3709 1.45215 12.0486C1.78447 11.7194 2.29582 11.4006 2.94315 11.1229C4.24042 10.5657 5.81542 10.2857 6.825 10.2857C7.83457 10.2857 9.4101 10.5657 10.7063 11.1229C11.3542 11.4006 11.8655 11.7194 12.1973 12.0486C12.5233 12.3709 12.6 12.6189 12.6 12.8V14.8571H1.05V12.8ZM13.3103 11.6971C14.1046 11.5183 14.9011 11.4286 15.4875 11.4286C16.3522 11.4286 17.5366 11.6229 18.4905 12.0046C18.9677 12.1954 19.3536 12.4206 19.6114 12.6629C19.866 12.9023 19.95 13.1126 19.95 13.2954V14.8571H13.65V12.8C13.65 12.4 13.5266 12.0314 13.3103 11.6971ZM18.375 6C18.375 7.73657 17.083 9.14286 15.4875 9.14286C15.1083 9.14293 14.7328 9.06169 14.3824 8.90378C14.0321 8.74586 13.7137 8.51436 13.4456 8.2225C13.1774 7.93065 12.9647 7.58415 12.8197 7.20281C12.6746 6.82147 12.5999 6.41275 12.6 6C12.6 4.26343 13.892 2.85714 15.4875 2.85714C17.083 2.85714 18.375 4.26343 18.375 6ZM15.4875 8C16.5028 8 17.325 7.10514 17.325 6C17.325 4.89486 16.5028 4 15.4875 4C15.2462 3.99985 15.0072 4.05148 14.7842 4.15194C14.5612 4.25239 14.3585 4.3997 14.1879 4.58545C14.0172 4.7712 13.8819 4.99174 13.7896 5.23446C13.6973 5.47717 13.6499 5.73731 13.65 6C13.65 7.10514 14.4721 8 15.4875 8Z" fill="white"/>
</svg>
