<svg width="16" height="14" viewBox="0 0 16 14" fill="none" xmlns="http://www.w3.org/2000/svg">
<path fill-rule="evenodd" clip-rule="evenodd" d="M5.12032 0.227806C5.40434 0.531547 5.40434 1.02401 5.12032 1.32775L2.48306 4.14815H11.3939C12.6155 4.14815 13.7871 4.66713 14.6509 5.59092C15.5147 6.51471 16 7.76764 16 9.07407C16 10.3805 15.5147 11.6334 14.6509 12.5572C13.7871 13.481 12.6155 14 11.3939 14H10.4242C10.0226 14 9.69697 13.6518 9.69697 13.2222C9.69697 12.7927 10.0226 12.4444 10.4242 12.4444H11.3939C12.2298 12.4444 13.0314 12.0894 13.6224 11.4573C14.2134 10.8252 14.5455 9.96795 14.5455 9.07407C14.5455 8.1802 14.2134 7.32293 13.6224 6.69086C13.0314 6.05879 12.2298 5.7037 11.3939 5.7037H2.48306L5.12032 8.5241C5.40434 8.82784 5.40434 9.3203 5.12032 9.62405C4.8363 9.92779 4.37582 9.92779 4.0918 9.62405L0.213013 5.4759C-0.0710044 5.17216 -0.0710044 4.6797 0.213013 4.37595L4.0918 0.227806C4.37582 -0.0759353 4.8363 -0.0759353 5.12032 0.227806Z" fill="#3D3D3D"/>
</svg>
