<svg width="17" height="16" viewBox="0 0 17 16" fill="none" xmlns="http://www.w3.org/2000/svg">
<path d="M10.2148 0.859375C7.21661 0.859375 4.78625 3.28973 4.78625 6.28795C4.78625 7.5433 5.21304 8.69866 5.92733 9.6183L5.1934 10.3522L4.0809 9.23973C4.0537 9.21312 4.01716 9.19822 3.97911 9.19822C3.94106 9.19822 3.90452 9.21312 3.87733 9.23973L3.16661 9.95045C3.14 9.97764 3.1251 10.0142 3.1251 10.0522C3.1251 10.0903 3.14 10.1268 3.16661 10.154L4.27911 11.2665L3.47733 12.0683L2.36483 10.9558C2.33763 10.9292 2.30109 10.9143 2.26304 10.9143C2.22499 10.9143 2.18845 10.9292 2.16125 10.9558L1.45054 11.6665C1.42393 11.6937 1.40903 11.7303 1.40903 11.7683C1.40903 11.8064 1.42393 11.8429 1.45054 11.8701L2.56304 12.9826L1.39697 14.1487C1.37038 14.1755 1.35547 14.2118 1.35547 14.2496C1.35547 14.2873 1.37038 14.3236 1.39697 14.3504L2.15233 15.1058C2.20768 15.1612 2.29875 15.1612 2.35411 15.1058L6.88268 10.5772C7.83598 11.3166 9.00839 11.7175 10.2148 11.7165C13.213 11.7165 15.6434 9.28616 15.6434 6.28795C15.6434 3.28973 13.213 0.859375 10.2148 0.859375ZM13.0934 9.16652C12.3255 9.93616 11.3023 10.3594 10.2148 10.3594C9.12733 10.3594 8.10411 9.93616 7.33625 9.16652C6.56661 8.39866 6.1434 7.37545 6.1434 6.28795C6.1434 5.20045 6.56661 4.17723 7.33625 3.40938C8.10411 2.63973 9.12733 2.21652 10.2148 2.21652C11.3023 2.21652 12.3255 2.63973 13.0934 3.40938C13.863 4.17723 14.2863 5.20045 14.2863 6.28795C14.2863 7.37545 13.863 8.39866 13.0934 9.16652Z" fill="#FAAD14"/>
</svg>
