<svg width="17" height="16" viewBox="0 0 17 16" fill="none" xmlns="http://www.w3.org/2000/svg">
<path d="M6.23358 9.42794C6.45902 9.42794 6.67523 9.33763 6.83464 9.1769C6.99405 9.01616 7.08361 8.79815 7.08361 8.57083C7.08361 8.34351 6.99405 8.12551 6.83464 7.96477C6.67523 7.80403 6.45902 7.71373 6.23358 7.71373C6.00813 7.71373 5.79192 7.80403 5.63251 7.96477C5.4731 8.12551 5.38354 8.34351 5.38354 8.57083C5.38354 8.79815 5.4731 9.01616 5.63251 9.1769C5.79192 9.33763 6.00813 9.42794 6.23358 9.42794ZM9.06702 0.571186C9.06699 0.488823 9.0493 0.40744 9.01516 0.332614C8.98103 0.257788 8.93125 0.191287 8.86925 0.137668C8.80725 0.084049 8.73448 0.0445793 8.65594 0.0219635C8.57739 -0.000652301 8.49493 -0.00587972 8.41419 0.00663946L0.480552 1.22944C0.346794 1.25018 0.224813 1.31851 0.136672 1.42205C0.0485318 1.5256 5.1494e-05 1.65753 0 1.79399V14.2049C5.1494e-05 14.3413 0.0485318 14.4733 0.136672 14.5768C0.224813 14.6804 0.346794 14.7487 0.480552 14.7694L8.41419 15.9934C8.49493 16.0059 8.57739 16.0007 8.65594 15.978C8.73448 15.9554 8.80725 15.916 8.86925 15.8623C8.93125 15.8087 8.98103 15.7422 9.01516 15.6674C9.0493 15.5926 9.06699 15.5112 9.06702 15.4288V7.99943H14.9288L13.7989 8.99824C13.6925 9.09976 13.6293 9.23886 13.6224 9.38637C13.6155 9.53388 13.6655 9.67835 13.762 9.78948C13.8584 9.90062 13.9938 9.96979 14.1397 9.98249C14.2856 9.9952 14.4307 9.95045 14.5446 9.85763L16.8069 7.85772C16.8675 7.80409 16.9161 7.73801 16.9495 7.66391C16.9828 7.58981 17 7.50938 17 7.42803C17 7.34667 16.9828 7.26624 16.9495 7.19214C16.9161 7.11804 16.8675 7.05196 16.8069 6.99833L14.5446 4.99842C14.4316 4.8987 14.2839 4.84834 14.1341 4.85841C13.9842 4.86849 13.8445 4.93817 13.7456 5.05213C13.6467 5.16609 13.5968 5.315 13.6067 5.46609C13.6167 5.61719 13.6858 5.75809 13.7989 5.85781L14.9288 6.85662H9.06702V0.571186ZM7.93364 1.2363V14.7648L1.13338 13.7135V2.28425L7.93364 1.2363ZM10.7671 14.8563H10.2004V9.14223H11.3338V14.2849C11.3338 14.4364 11.2741 14.5817 11.1678 14.6889C11.0615 14.7961 10.9174 14.8563 10.7671 14.8563ZM10.2004 5.71382V1.14259H10.7671C10.9174 1.14259 11.0615 1.20279 11.1678 1.30995C11.2741 1.41711 11.3338 1.56245 11.3338 1.71399V5.71382H10.2004Z" fill="#FEF8F8"/>
</svg>
