<svg width="12" height="12" viewBox="0 0 12 12" fill="none" xmlns="http://www.w3.org/2000/svg">
<path d="M8.3252 6.09844C8.34014 6.08674 8.35222 6.0718 8.36053 6.05475C8.36884 6.03769 8.37316 6.01897 8.37316 6C8.37316 5.98103 8.36884 5.9623 8.36053 5.94525C8.35222 5.92819 8.34014 5.91325 8.3252 5.90156L6.11113 4.15156C6.02988 4.0875 5.90957 4.14531 5.90957 4.25L5.90957 5.40781L0.62207 5.40781C0.55332 5.40781 0.49707 5.46406 0.49707 5.53281L0.49707 6.47031C0.49707 6.53906 0.55332 6.59531 0.62207 6.59531L5.90801 6.59531L5.90801 7.75C5.90801 7.85469 6.02832 7.9125 6.10957 7.84844L8.3252 6.09844ZM7.77832 0.281249L7.77832 1.21875C7.77832 1.2875 7.83457 1.34375 7.90332 1.34375L10.3096 1.34375L10.3096 10.6562L7.90332 10.6562C7.83457 10.6562 7.77832 10.7125 7.77832 10.7812L7.77832 11.7187C7.77832 11.7875 7.83457 11.8437 7.90332 11.8437L10.9971 11.8437C11.2736 11.8437 11.4971 11.6203 11.4971 11.3437L11.4971 0.656249C11.4971 0.379686 11.2736 0.156249 10.9971 0.156249L7.90332 0.156249C7.83457 0.156249 7.77832 0.212498 7.77832 0.281249Z" fill="#3D3D3D"/>
</svg>
