<svg width="13" height="14" viewBox="0 0 13 14" fill="none" xmlns="http://www.w3.org/2000/svg">
<path d="M11.1875 6.0625H10.25V4.1875C10.25 3.19294 9.85491 2.23917 9.15165 1.5359C8.44839 0.832643 7.49456 0.4375 6.5 0.4375C5.50544 0.4375 4.55161 0.832643 3.84835 1.5359C3.14509 2.23917 2.75 3.19294 2.75 4.1875V6.0625H1.8125L0.875 7V12.625L1.8125 13.5625H11.1875L12.125 12.625V7L11.1875 6.0625ZM3.6875 4.1875C3.6875 3.44158 3.9838 2.72619 4.51125 2.19875C5.03869 1.6713 5.75408 1.375 6.5 1.375C7.24592 1.375 7.96131 1.6713 8.48875 2.19875C9.0162 2.72619 9.3125 3.44158 9.3125 4.1875V6.0625H3.6875V4.1875ZM11.1875 12.625H1.8125V7H11.1875V12.625Z" fill="white"/>
</svg>
