<svg width="12" height="12" viewBox="-9 0 30 12" fill="none" xmlns="http://www.w3.org/2000/svg">
<path d="M10.2856 5.35882H9.37493V2.35882C9.37493 1.41194 8.60752 0.644531 7.66065 0.644531H4.33922C3.39234 0.644531 2.62493 1.41194 2.62493 2.35882V5.35882H1.71422C1.47716 5.35882 1.28564 5.55033 1.28564 5.78739V10.9302C1.28564 11.1673 1.47716 11.3588 1.71422 11.3588H10.2856C10.5227 11.3588 10.7142 11.1673 10.7142 10.9302V5.78739C10.7142 5.55033 10.5227 5.35882 10.2856 5.35882ZM3.58922 2.35882C3.58922 1.94498 3.92538 1.60882 4.33922 1.60882H7.66065C8.07449 1.60882 8.41065 1.94498 8.41065 2.35882V5.35882H3.58922V2.35882ZM9.74993 10.3945H2.24993V6.3231H9.74993V10.3945ZM5.62493 8.53292V9.24275C5.62493 9.30167 5.67315 9.34989 5.73207 9.34989H6.26779C6.32672 9.34989 6.37493 9.30167 6.37493 9.24275V8.53292C6.48549 8.45355 6.568 8.34115 6.61061 8.21189C6.65321 8.08263 6.6537 7.94319 6.61201 7.81364C6.57032 7.68409 6.4886 7.5711 6.3786 7.49095C6.26861 7.4108 6.13603 7.36762 5.99993 7.36762C5.86383 7.36762 5.73125 7.4108 5.62126 7.49095C5.51127 7.5711 5.42954 7.68409 5.38785 7.81364C5.34616 7.94319 5.34665 8.08263 5.38926 8.21189C5.43186 8.34115 5.51438 8.45355 5.62493 8.53292V8.53292Z" fill="#FFFFFF"/>
</svg>