<svg width="16" height="14" viewBox="0 0 16 14" fill="none" xmlns="http://www.w3.org/2000/svg">
<path d="M15.4286 0.710938H0.571429C0.255357 0.710938 0 0.966295 0 1.28237V12.7109C0 13.027 0.255357 13.2824 0.571429 13.2824H15.4286C15.7446 13.2824 16 13.027 16 12.7109V1.28237C16 0.966295 15.7446 0.710938 15.4286 0.710938ZM14.7143 2.68951V11.9967H1.28571V2.68951L0.792857 2.30558L1.49464 1.40379L2.25893 1.99844H13.7429L14.5071 1.40379L15.2089 2.30558L14.7143 2.68951ZM13.7429 1.99665L8 6.46094L2.25714 1.99665L1.49286 1.40201L0.791072 2.30379L1.28393 2.68772L7.38393 7.43058C7.55936 7.56687 7.77518 7.64085 7.99732 7.64085C8.21947 7.64085 8.43529 7.56687 8.61071 7.43058L14.7143 2.68951L15.2071 2.30558L14.5054 1.40379L13.7429 1.99665Z" fill="#DBDBDB"/>
</svg>
