<svg width="18" height="18" viewBox="0 0 18 18" fill="none" xmlns="http://www.w3.org/2000/svg">
<path d="M15.9687 13.1975C15.41 12.6384 14.7571 12.182 14.0401 11.8493C15.0513 11.0301 15.6963 9.7801 15.6963 8.37831C15.6963 5.9051 13.6338 3.87608 11.1606 3.91403C8.72536 3.95197 6.76331 5.93635 6.76331 8.37831C6.76331 9.7801 7.41063 11.0301 8.41956 11.8493C7.70239 12.1817 7.04951 12.6381 6.49099 13.1975C5.27224 14.4185 4.58027 16.0301 4.53563 17.7488C4.53503 17.7727 4.53921 17.7964 4.54792 17.8186C4.55663 17.8407 4.56969 17.861 4.58633 17.878C4.60297 17.8951 4.62286 17.9086 4.64482 17.9179C4.66678 17.9271 4.69037 17.9319 4.7142 17.9319H5.9642C6.06018 17.9319 6.14054 17.856 6.14277 17.76C6.18518 16.4654 6.70974 15.2533 7.63161 14.3337C8.10335 13.8594 8.66447 13.4834 9.28249 13.2275C9.9005 12.9716 10.5631 12.8407 11.2321 12.8426C12.5914 12.8426 13.8705 13.3716 14.8325 14.3337C15.7521 15.2533 16.2767 16.4654 16.3213 17.76C16.3236 17.856 16.4039 17.9319 16.4999 17.9319H17.7499C17.7737 17.9319 17.7973 17.9271 17.8193 17.9179C17.8413 17.9086 17.8611 17.8951 17.8778 17.878C17.8944 17.861 17.9075 17.8407 17.9162 17.8186C17.9249 17.7964 17.9291 17.7727 17.9285 17.7488C17.8838 16.0301 17.1919 14.4185 15.9687 13.1975ZM11.2321 11.2355C10.4687 11.2355 9.74992 10.9386 9.21197 10.3984C8.942 10.1306 8.72875 9.81108 8.58493 9.45903C8.44112 9.10697 8.36969 8.72956 8.37492 8.3493C8.38161 7.61715 8.67402 6.90956 9.18518 6.38501C9.7209 5.8359 10.4374 5.5301 11.203 5.52117C11.9597 5.51447 12.6941 5.80912 13.2343 6.33814C13.7879 6.88055 14.0914 7.60599 14.0914 8.37831C14.0914 9.14171 13.7946 9.85822 13.2544 10.3984C12.9894 10.6647 12.6742 10.8758 12.327 11.0195C11.9799 11.1631 11.6077 11.2366 11.2321 11.2355ZM5.64054 8.9676C5.62045 8.7734 5.60929 8.57697 5.60929 8.37831C5.60929 8.0234 5.64277 7.67742 5.70527 7.34037C5.7209 7.26001 5.67849 7.17742 5.60483 7.14394C5.30126 7.00778 5.02224 6.82028 4.78117 6.58367C4.4971 6.30824 4.27357 5.97662 4.12484 5.60997C3.9761 5.24332 3.90543 4.8497 3.91733 4.45421C3.93742 3.73769 4.22536 3.05689 4.72759 2.54349C5.27893 1.97876 6.02001 1.67072 6.80795 1.67965C7.52 1.68635 8.20751 1.9609 8.72759 2.44751C8.90393 2.61269 9.05572 2.79572 9.18295 2.99215C9.22759 3.06135 9.31465 3.09037 9.39054 3.06358C9.7834 2.92742 10.1986 2.83144 10.6249 2.7868C10.7499 2.7734 10.8213 2.63947 10.7655 2.52787C10.0401 1.0926 8.55795 0.101528 6.84367 0.0747425C4.36822 0.0367961 2.30572 2.06581 2.30572 4.5368C2.30572 5.93858 2.95081 7.18858 3.96197 8.00778C3.25215 8.3359 2.59813 8.78903 2.03117 9.35599C0.807952 10.577 0.115988 12.1886 0.0713449 13.9096C0.0707491 13.9334 0.0749277 13.9571 0.0836347 13.9793C0.0923416 14.0015 0.105401 14.0217 0.122042 14.0387C0.138684 14.0558 0.158571 14.0693 0.180533 14.0786C0.202494 14.0878 0.226086 14.0926 0.249916 14.0926H1.50215C1.59813 14.0926 1.67849 14.0167 1.68072 13.9207C1.72313 12.6261 2.24768 11.414 3.16956 10.4944C3.82581 9.83814 4.62938 9.38278 5.50661 9.1618C5.59367 9.13947 5.6517 9.05689 5.64054 8.9676Z" fill="white"/>
</svg>
