<svg width="20" height="20" viewBox="0 0 20 20" fill="none" xmlns="http://www.w3.org/2000/svg">
<path d="M18.0279 1.43048C18.5895 1.9598 18.5819 1.95221 19.0543 2.39806C19.5248 2.84391 19.9859 4.03916 19.0543 4.97259C18.1209 5.90412 6.85899 17.1679 6.85899 17.1679C6.85899 17.1679 1.69096 19.3156 1.41966 19.4313C1.14836 19.547 0.911205 19.2833 1.03263 19.0063C1.15405 18.7293 3.29791 13.8004 3.29791 13.8004C3.29791 13.8004 14.7628 2.27664 15.5103 1.52723C16.2597 0.77973 17.4664 0.901152 18.0279 1.43048ZM1.83325 18.625L6.11718 16.8188L3.65269 14.4321L1.83325 18.625ZM3.95055 13.9009L6.65978 16.5456L15.6697 7.53004L12.9813 4.91188L3.95055 13.9009ZM13.3892 4.50018L16.0833 7.12024L17.2728 5.93638L14.5788 3.31252L13.3892 4.50018ZM14.9791 2.88185L17.7035 5.50191C17.7035 5.50191 18.2803 4.92326 18.6901 4.51156C19.1018 4.09987 19.1852 3.34857 18.6294 2.80027C18.1626 2.34114 18.1323 2.31838 17.7016 1.90668C17.2709 1.49498 16.4248 1.46463 15.996 1.88202C15.571 2.3032 14.9791 2.88185 14.9791 2.88185Z" fill="white" stroke="white" stroke-width="0.5"/>
</svg>
