<svg width="16" height="16" viewBox="0 0 16 16" fill="none" xmlns="http://www.w3.org/2000/svg">
<g clip-path="url(#clip0_9216_39500)">
<path fill-rule="evenodd" clip-rule="evenodd" d="M1.14085 0.560645C1.38368 0.335163 1.76332 0.349224 1.9888 0.59205L4.32509 3.10788L5.20289 4.0532L11.7144 11.0656L13.0001 12.4502L13.1108 12.5695L14.0001 13.5271L14.9888 14.5921C15.2143 14.8349 15.2002 15.2145 14.9574 15.44C14.7146 15.6655 14.3349 15.6514 14.1094 15.4086L1.10945 1.40859C0.883967 1.16577 0.898028 0.786126 1.14085 0.560645Z" fill="white"/>
<path fill-rule="evenodd" clip-rule="evenodd" d="M14.0001 13.7123V13.5271L13.1108 12.5695H13.0001V12.4502L11.7144 11.0656V12.5695H4.2858V6.49803C4.2858 5.58872 4.60933 4.73034 5.20289 4.0532L4.32509 3.10788C3.50256 3.99862 3.00008 5.18931 3.00008 6.49803V12.5695H2.57151C2.25544 12.5695 2.00008 12.8248 2.00008 13.1409V13.7123C2.00008 13.7909 2.06437 13.8552 2.14294 13.8552H6.00008C6.00008 14.9588 6.89651 15.8552 8.00008 15.8552C9.10365 15.8552 10.0001 14.9588 10.0001 13.8552H13.8572C13.9358 13.8552 14.0001 13.7909 14.0001 13.7123ZM13.0001 10.6866V6.49803C13.0001 3.97839 11.1376 1.89625 8.71437 1.54982V0.855178C8.71437 0.460536 8.39473 0.140892 8.00008 0.140892C7.60544 0.140892 7.2858 0.460536 7.2858 0.855178V1.54982C6.53746 1.65681 5.84259 1.92933 5.23955 2.32915L6.12901 3.28703C6.69066 2.95859 7.33161 2.78375 8.00008 2.78375C8.99294 2.78375 9.92508 3.16946 10.6269 3.87125C11.3286 4.57303 11.7144 5.50517 11.7144 6.49803V9.30202L13.0001 10.6866ZM7.14294 13.8552C7.14294 14.3284 7.52687 14.7123 8.00008 14.7123C8.4733 14.7123 8.85723 14.3284 8.85723 13.8552H7.14294Z" fill="white"/>
</g>
<defs>
<clipPath id="clip0_9216_39500">
<rect width="16" height="16" fill="white"/>
</clipPath>
</defs>
</svg>
