<svg width="16" height="16" viewBox="0 0 16 16" fill="none" xmlns="http://www.w3.org/2000/svg">
<path fill-rule="evenodd" clip-rule="evenodd" d="M0.640854 0.5604C0.883681 0.334919 1.26332 0.348979 1.4888 0.591806L3.82509 3.10763L4.70289 4.05296L11.2144 11.0653L12.5001 12.4499L12.6108 12.5692L13.5001 13.5269L14.4888 14.5918C14.7143 14.8346 14.7002 15.2143 14.4574 15.4398C14.2146 15.6652 13.8349 15.6512 13.6094 15.4083L0.609449 1.40835C0.383967 1.16552 0.398028 0.785882 0.640854 0.5604Z" fill="#3D3D3D"/>
<path fill-rule="evenodd" clip-rule="evenodd" d="M13.5001 13.7121V13.5269L12.6108 12.5692H12.5001V12.4499L11.2144 11.0653V12.5692H3.7858V6.49779C3.7858 5.58848 4.10933 4.7301 4.70289 4.05296L3.82509 3.10763C3.00256 3.99838 2.50008 5.18907 2.50008 6.49779V12.5692H2.07151C1.75544 12.5692 1.50008 12.8246 1.50008 13.1406V13.7121C1.50008 13.7906 1.56437 13.8549 1.64294 13.8549H5.50008C5.50008 14.9585 6.39651 15.8549 7.50008 15.8549C8.60365 15.8549 9.50008 14.9585 9.50008 13.8549H13.3572C13.4358 13.8549 13.5001 13.7906 13.5001 13.7121ZM12.5001 10.6864V6.49779C12.5001 3.97814 10.6376 1.89601 8.21437 1.54958V0.854934C8.21437 0.460291 7.89473 0.140648 7.50008 0.140648C7.10544 0.140648 6.7858 0.460291 6.7858 0.854934V1.54958C6.03746 1.65656 5.34259 1.92908 4.73955 2.3289L5.62901 3.28679C6.19066 2.95835 6.83161 2.7835 7.50008 2.7835C8.49294 2.7835 9.42508 3.16922 10.1269 3.871C10.8286 4.57279 11.2144 5.50493 11.2144 6.49779V9.30178L12.5001 10.6864ZM6.64294 13.8549C6.64294 14.3281 7.02687 14.7121 7.50008 14.7121C7.9733 14.7121 8.35723 14.3281 8.35723 13.8549H6.64294Z" fill="#3D3D3D"/>
</svg>
