<svg width="14" height="14" viewBox="0 0 14 14" fill="none" xmlns="http://www.w3.org/2000/svg">
<path d="M13.54 4.86228L9.14004 0.462277C9.02397 0.346205 8.87218 0.289062 8.7204 0.289062C8.56861 0.289062 8.41682 0.346205 8.30075 0.462277L5.42397 3.34085C5.20611 3.31585 4.98647 3.30513 4.76682 3.30513C3.45968 3.30513 2.15254 3.73549 1.07932 4.59621C1.01433 4.64839 0.961066 4.71368 0.922991 4.78782C0.884915 4.86196 0.862886 4.94329 0.858337 5.02652C0.853788 5.10974 0.866823 5.19299 0.896591 5.27084C0.926359 5.34869 0.972194 5.41939 1.03111 5.47835L4.27575 8.72299L0.429324 12.5659C0.382189 12.6127 0.353099 12.6747 0.347181 12.7408L0.286466 13.4051C0.270395 13.573 0.404323 13.7159 0.570395 13.7159C0.579323 13.7159 0.588252 13.7158 0.597181 13.7141L1.26147 13.6534C1.32754 13.648 1.39004 13.6176 1.43647 13.5712L5.2829 9.72478L8.52754 12.9694C8.64361 13.0855 8.79539 13.1426 8.94718 13.1426C9.12039 13.1426 9.29182 13.0676 9.40968 12.9212C10.415 11.6659 10.8329 10.0944 10.6633 8.57478L13.54 5.69799C13.7704 5.46942 13.7704 5.09442 13.54 4.86228ZM9.75254 7.66942L9.31504 8.10692L9.3829 8.72121C9.48931 9.67132 9.29972 10.6311 8.84004 11.4694L2.53468 5.16049C2.76504 5.03371 3.00432 4.92656 3.25432 4.84085C3.74004 4.67299 4.24897 4.58906 4.76682 4.58906C4.93825 4.58906 5.11147 4.59799 5.2829 4.61763L5.89718 4.68549L6.33468 4.24799L8.72218 1.86049L12.1418 5.28013L9.75254 7.66942Z" fill="#5E5E5E"/>
</svg>
