<svg width="18" height="18" viewBox="0 0 18 18" fill="none" xmlns="http://www.w3.org/2000/svg">
<path d="M6.00061 14.2496H6.25061V13.9996V6.9998V6.7498H6.00061H4.00041H3.75041V6.9998V13.9996V14.2496H4.00041H6.00061ZM7.75082 13.9996V14.2496H8.00082H9.99918H10.001H10.251V13.9996V4.00041V3.75041H10.001H8.00082H7.75082V4.00041V13.9996ZM13.9996 14.2496H14.2496V13.9996V9.99918V9.74918H13.9996H11.9994H11.7494V9.99918V13.9996V14.2496H11.9994H13.9996ZM2.0002 0.25H15.9998C16.9619 0.25 17.75 1.03807 17.75 2.0002V15.9998C17.75 16.9619 16.9619 17.75 15.9998 17.75H2.0002C1.03807 17.75 0.25 16.9619 0.25 15.9998V2.0002C0.25 1.03807 1.03807 0.25 2.0002 0.25Z" fill="#2E2E2E" stroke="#9F9F9F" stroke-width="0.5"/>
</svg>
