<?xml version="1.0" encoding="utf-8"?>
<!-- Generator: Adobe Illustrator 25.2.0, SVG Export Plug-In . SVG Version: 6.00 Build 0)  -->
<svg version="1.1" id="Layer_1" xmlns="http://www.w3.org/2000/svg" xmlns:xlink="http://www.w3.org/1999/xlink" x="0px" y="0px"
	 viewBox="0 0 40.4 40" style="enable-background:new 0 0 40.4 40;" xml:space="preserve">
<style type="text/css">
	.st0{fill:#0168F1;}
</style>
<path class="st0" d="M20.2,0C9,0,0,9,0,20s9,20,20.2,20s20.2-9,20.2-20S31.4,0,20.2,0z M31.5,15.5c-1.1,4.9-5.6,8.4-10.7,8.4h-3.4
	l-1.9,8.4H9.1L11,24l1.3-5.9h6.5l-0.6,2.8l8.4-5l-6.2-5l-0.6,2.8h-6.5l1.3-5.3c0,0,7.7-0.7,11.2-0.2c3.3,0.5,5.9,2.8,5.9,5.9
	C31.6,14.7,31.6,15.1,31.5,15.5z"/>
</svg>
