<svg width="16" height="16" viewBox="0 0 16 16" fill="none" xmlns="http://www.w3.org/2000/svg">
<path d="M6.28445 10.7252V10.7244V10.7252ZM6.28445 10.7252L6.28524 10.7244L9.52989 13.969C9.64585 14.085 9.79749 14.1421 9.94913 14.1421C10.1222 14.1421 10.2935 14.0671 10.4112 13.9209C11.4165 12.6656 11.8343 11.0943 11.6647 9.57484L11.6646 9.57415L11.6648 9.57438L14.5416 6.6976L14.542 6.69799L14.5416 6.6976C14.7717 6.46924 14.7717 6.0946 14.5416 5.86267L10.6318 1.95285L6.28445 10.7252ZM6.42586 4.3414L6.42582 4.34174L2.43842 14.5712C2.39168 14.6172 2.32931 14.6474 2.26337 14.6528L1.59908 14.7135L1.59902 14.7135C1.59016 14.7153 1.58129 14.7153 1.57235 14.7153C1.4066 14.7153 1.27294 14.5727 1.28898 14.4052L1.28898 14.4052L1.34969 13.7409C1.3556 13.6748 1.38463 13.613 1.43167 13.5662L5.2781 9.72339L5.27771 9.72299L5.27731 9.7226L4.42828 8.87278L2.03346 6.47795C1.9746 6.41905 1.92881 6.34841 1.89907 6.27064C1.86932 6.19286 1.8563 6.10969 1.86085 6.02655C1.86539 5.9434 1.8874 5.86215 1.92544 5.78808C1.96348 5.714 2.0167 5.64878 2.08163 5.59664C3.15474 4.73601 4.46176 4.30569 5.76878 4.30569C5.9884 4.30569 6.20802 4.31641 6.42586 4.3414ZM13.1442 6.28053L13.1438 6.28013L13.1442 6.27974L9.72453 2.8601H9.72374L7.33624 5.2476L6.89893 5.68491L6.28491 5.61708C6.11346 5.59743 5.94022 5.5885 5.76878 5.5885C5.25086 5.5885 4.74187 5.67244 4.2561 5.84032C4.00606 5.92605 3.76675 6.0332 3.53636 6.16L3.53663 6.16049L3.5369 6.16098L3.5376 6.16225L9.8416 12.4698L9.84199 12.4694L9.84239 12.469L9.8434 12.468C10.3025 11.63 10.4918 10.6707 10.3854 9.72115L10.3176 9.10713L10.7549 8.66982L13.1442 6.28053Z" fill="#828282" stroke="#828282" stroke-width="0.00111607"/>
</svg>
