<svg width="52" height="52" viewBox="0 0 52 52" fill="none" xmlns="http://www.w3.org/2000/svg">
<path d="M26.5374 20.6638H25.4638C25.3656 20.6638 25.2852 20.7441 25.2852 20.8424V26.9874C25.2852 27.0455 25.312 27.0991 25.3589 27.1325L29.0486 29.8267C29.1289 29.8848 29.2406 29.8691 29.2986 29.7888L29.937 28.9183C29.9972 28.8357 29.9794 28.7241 29.899 28.6683L26.716 26.3669V20.8424C26.716 20.7441 26.6356 20.6638 26.5374 20.6638ZM31.4437 22.3424L34.9437 23.1973C35.0553 23.2241 35.1647 23.1392 35.1647 23.0254L35.1825 19.4205C35.1825 19.2709 35.0106 19.1861 34.8946 19.2799L31.3767 22.0276C31.3501 22.0482 31.3299 22.0758 31.3183 22.1074C31.3067 22.139 31.3043 22.1732 31.3113 22.206C31.3183 22.2389 31.3344 22.2691 31.3579 22.2933C31.3813 22.3174 31.411 22.3344 31.4437 22.3424ZM35.187 29.0633L33.9214 28.6281C33.8772 28.6129 33.8289 28.6157 33.7868 28.6357C33.7447 28.6557 33.712 28.6914 33.6959 28.7352C33.6535 28.8491 33.6089 28.9607 33.562 29.0723C33.1647 30.012 32.5955 30.858 31.8678 31.5834C31.1482 32.3053 30.2954 32.8806 29.3566 33.2776C28.3841 33.6888 27.3388 33.8998 26.283 33.8982C25.216 33.8982 24.1825 33.6906 23.2093 33.2776C22.2706 32.8806 21.4177 32.3053 20.6981 31.5834C19.9727 30.858 19.4035 30.012 19.0039 29.0723C18.5951 28.0992 18.3856 27.0541 18.3879 25.9986C18.3879 24.9316 18.5955 23.8959 19.0084 22.9227C19.4057 21.983 19.9749 21.137 20.7026 20.4116C21.4222 19.6897 22.275 19.1144 23.2138 18.7174C24.1825 18.3044 25.2182 18.0968 26.2852 18.0968C27.3522 18.0968 28.3856 18.3044 29.3589 18.7174C30.2976 19.1144 31.1504 19.6897 31.87 20.4116C32.0977 20.6415 32.312 20.8803 32.5084 21.1325L33.8432 20.0879C32.0865 17.8424 29.3522 16.3982 26.2807 16.4004C20.9325 16.4026 16.6379 20.7464 16.6914 26.0968C16.745 31.3535 21.0196 35.5968 26.2852 35.5968C30.4258 35.5968 33.9526 32.9718 35.2964 29.2955C35.3298 29.2017 35.2807 29.0968 35.187 29.0633Z" fill="#DBDBDB"/>
</svg>
