<svg width="19" height="21" viewBox="0 0 19 21" fill="none" xmlns="http://www.w3.org/2000/svg">
<path d="M18.7226 9.55817L0.993283 0.693167C0.901645 0.647154 0.798076 0.63043 0.696612 0.645258C0.595148 0.660087 0.500698 0.705752 0.426062 0.776067C0.351426 0.846382 0.300211 0.937944 0.279364 1.03834C0.258515 1.13874 0.26904 1.24313 0.30951 1.33734L4.01475 9.98243L0.885802 19.3693C0.853919 19.4648 0.851647 19.5678 0.879283 19.6647C0.90692 19.7616 0.963176 19.8478 1.04068 19.9122C1.11819 19.9765 1.21332 20.016 1.31363 20.0253C1.41394 20.0347 1.51473 20.0136 1.60281 19.9647L18.7431 10.4428C18.8227 10.3985 18.8886 10.3333 18.9339 10.2542C18.9791 10.1752 19.0019 10.0853 18.9998 9.99427C18.9977 9.90323 18.9707 9.81448 18.9219 9.73763C18.873 9.66077 18.8041 9.59872 18.7226 9.55817Z" fill="#B7B7B7"/>
</svg>
