<svg width="17" height="17" viewBox="0 0 17 17" fill="none" xmlns="http://www.w3.org/2000/svg">
<path d="M16.2691 7.6318L1.49473 0.244307C1.41836 0.205962 1.33205 0.192026 1.2475 0.204383C1.16295 0.21674 1.08424 0.254796 1.02204 0.31339C0.959845 0.371986 0.917168 0.448288 0.899794 0.531954C0.882421 0.615621 0.89119 0.702604 0.924917 0.781119L4.01261 7.98536L1.40516 15.8077C1.37859 15.8874 1.3767 15.9732 1.39973 16.0539C1.42276 16.1346 1.46964 16.2065 1.53422 16.2602C1.59881 16.3138 1.67809 16.3467 1.76168 16.3545C1.84527 16.3623 1.92927 16.3446 2.00266 16.3039L16.2862 8.36896C16.3525 8.33206 16.4075 8.27774 16.4452 8.21187C16.4829 8.14601 16.5019 8.0711 16.5002 7.99523C16.4984 7.91935 16.4759 7.8454 16.4352 7.78136C16.3945 7.71731 16.3371 7.6656 16.2691 7.6318Z" fill="#5E5E5E"/>
</svg>
