<svg width="40" height="40" viewBox="0 0 40 40" fill="none" xmlns="http://www.w3.org/2000/svg">
<circle cx="20" cy="20" r="20" fill="#5E5E5E"/>
<g clip-path="url(#clip0_8340_32565)">
<path d="M31.0564 23.0496L29.3019 21.5496C29.3849 21.0406 29.4278 20.521 29.4278 20.0013C29.4278 19.4817 29.3849 18.9621 29.3019 18.4531L31.0564 16.9531C31.1887 16.8398 31.2834 16.689 31.3279 16.5205C31.3724 16.3521 31.3646 16.1741 31.3055 16.0103L31.2814 15.9406C30.7984 14.5907 30.0751 13.3393 29.1465 12.2469L29.0983 12.1906C28.9857 12.0582 28.8356 11.963 28.6677 11.9175C28.4999 11.8721 28.3222 11.8786 28.1582 11.9362L25.9805 12.7103C25.1769 12.0513 24.2796 11.5317 23.3099 11.1674L22.8894 8.89062C22.8577 8.71931 22.7746 8.5617 22.6511 8.43874C22.5277 8.31579 22.3698 8.23329 22.1983 8.20223L22.126 8.18884C20.7305 7.93705 19.2626 7.93705 17.8671 8.18884L17.7948 8.20223C17.6233 8.23329 17.4654 8.31579 17.342 8.43874C17.2185 8.5617 17.1354 8.71931 17.1037 8.89062L16.6805 11.1781C15.7186 11.5425 14.8228 12.0619 14.0287 12.7156L11.8349 11.9362C11.6709 11.8781 11.4931 11.8714 11.3252 11.9169C11.1573 11.9623 11.0071 12.0578 10.8948 12.1906L10.8465 12.2469C9.91908 13.3401 9.19595 14.5913 8.71172 15.9406L8.68762 16.0103C8.56708 16.3451 8.66619 16.7201 8.93672 16.9531L10.7126 18.4692C10.6296 18.9728 10.5894 19.4871 10.5894 19.9987C10.5894 20.5129 10.6296 21.0272 10.7126 21.5281L8.93672 23.0442C8.80439 23.1575 8.70968 23.3084 8.66518 23.4768C8.62068 23.6452 8.62851 23.8232 8.68762 23.9871L8.71172 24.0567C9.19655 25.4067 9.9144 26.6522 10.8465 27.7504L10.8948 27.8067C11.0074 27.9391 11.1575 28.0344 11.3254 28.0798C11.4932 28.1252 11.6709 28.1187 11.8349 28.0612L14.0287 27.2817C14.8269 27.9379 15.7189 28.4576 16.6805 28.8192L17.1037 31.1067C17.1354 31.278 17.2185 31.4356 17.342 31.5586C17.4654 31.6815 17.6233 31.764 17.7948 31.7951L17.8671 31.8085C19.2754 32.0616 20.7177 32.0616 22.126 31.8085L22.1983 31.7951C22.3698 31.764 22.5277 31.6815 22.6511 31.5586C22.7746 31.4356 22.8577 31.278 22.8894 31.1067L23.3099 28.8299C24.2792 28.4666 25.1816 27.9452 25.9805 27.2871L28.1582 28.0612C28.3222 28.1192 28.5 28.1259 28.6679 28.0804C28.8358 28.035 28.986 27.9395 29.0983 27.8067L29.1465 27.7504C30.0787 26.6496 30.7965 25.4067 31.2814 24.0567L31.3055 23.9871C31.426 23.6576 31.3269 23.2826 31.0564 23.0496ZM27.4001 18.7692C27.4671 19.1737 27.5019 19.5888 27.5019 20.004C27.5019 20.4192 27.4671 20.8344 27.4001 21.2388L27.2233 22.3129L29.2242 24.0246C28.9209 24.7234 28.538 25.3849 28.0832 25.996L25.5974 25.1147L24.7564 25.8058C24.1162 26.3308 23.4037 26.7433 22.6323 27.0326L21.6117 27.4156L21.1323 30.0138C20.3758 30.0996 19.612 30.0996 18.8555 30.0138L18.376 27.4103L17.3635 27.0219C16.6001 26.7326 15.8903 26.3201 15.2555 25.7978L14.4144 25.104L11.9126 25.9933C11.4573 25.3799 11.0769 24.7183 10.7715 24.0219L12.7939 22.2942L12.6198 21.2228C12.5555 20.8237 12.5207 20.4112 12.5207 20.004C12.5207 19.5942 12.5528 19.1844 12.6198 18.7853L12.7939 17.7138L10.7715 15.9862C11.0742 15.2871 11.4573 14.6281 11.9126 14.0147L14.4144 14.904L15.2555 14.2103C15.8903 13.6879 16.6001 13.2754 17.3635 12.9862L18.3787 12.6031L18.8582 9.99955C19.6108 9.91384 20.3796 9.91384 21.1349 9.99955L21.6144 12.5978L22.6349 12.9808C23.4037 13.2701 24.1189 13.6826 24.759 14.2076L25.6001 14.8987L28.0858 14.0174C28.5412 14.6308 28.9215 15.2924 29.2269 15.9888L27.226 17.7004L27.4001 18.7692ZM19.9992 15.0219C17.3957 15.0219 15.2849 17.1326 15.2849 19.7362C15.2849 22.3397 17.3957 24.4504 19.9992 24.4504C22.6028 24.4504 24.7135 22.3397 24.7135 19.7362C24.7135 17.1326 22.6028 15.0219 19.9992 15.0219ZM22.1207 21.8576C21.8424 22.1366 21.5117 22.3579 21.1477 22.5087C20.7836 22.6595 20.3933 22.7368 19.9992 22.7362C19.1983 22.7362 18.4457 22.4228 17.8778 21.8576C17.5988 21.5793 17.3775 21.2487 17.2267 20.8846C17.0759 20.5205 16.9986 20.1302 16.9992 19.7362C16.9992 18.9353 17.3126 18.1826 17.8778 17.6147C18.4457 17.0469 19.1983 16.7362 19.9992 16.7362C20.8001 16.7362 21.5528 17.0469 22.1207 17.6147C22.3997 17.893 22.621 18.2236 22.7718 18.5877C22.9225 18.9518 22.9998 19.3421 22.9992 19.7362C22.9992 20.5371 22.6858 21.2897 22.1207 21.8576Z" fill="white"/>
</g>
<defs>
<clipPath id="clip0_8340_32565">
<rect width="24" height="24" fill="white" transform="translate(8 8)"/>
</clipPath>
</defs>
</svg>
