<svg width="17" height="18" viewBox="0 0 17 18" fill="none" xmlns="http://www.w3.org/2000/svg">
<path d="M10.2269 0C10.3588 4.28891e-06 10.4873 0.0432049 10.5939 0.12338C10.7005 0.203556 10.7797 0.316569 10.82 0.446143L11.5053 2.64343C11.7932 2.78871 12.0685 2.952 12.3314 3.13586L14.5194 2.64986C14.6484 2.62144 14.7828 2.636 14.9033 2.69146C15.0237 2.74691 15.124 2.84039 15.1897 2.95843L16.9167 6.04286C16.9826 6.16083 17.0105 6.29736 16.9964 6.43278C16.9823 6.56819 16.9269 6.69547 16.8382 6.79629L15.3367 8.50629C15.3586 8.83418 15.3586 9.16325 15.3367 9.49114L16.8382 11.2037C16.9269 11.3045 16.9823 11.4318 16.9964 11.5672C17.0105 11.7026 16.9826 11.8392 16.9167 11.9571L15.1897 15.0429C15.1239 15.1607 15.0235 15.2539 14.903 15.3091C14.7826 15.3643 14.6482 15.3787 14.5194 15.3501L12.3314 14.8641C12.0698 15.0467 11.7932 15.2113 11.5066 15.3566L10.82 17.5539C10.7797 17.6834 10.7005 17.7964 10.5939 17.8766C10.4873 17.9568 10.3588 18 10.2269 18H6.77306C6.64116 18 6.51267 17.9568 6.40608 17.8766C6.2995 17.7964 6.22033 17.6834 6.17997 17.5539L5.49592 15.3579C5.20887 15.213 4.93199 15.0476 4.66733 14.8629L2.48062 15.3501C2.35162 15.3786 2.2172 15.364 2.09674 15.3085C1.97627 15.2531 1.87597 15.1596 1.81028 15.0416L0.0833388 11.9571C0.0173942 11.8392 -0.0105379 11.7026 0.00357006 11.5672C0.017678 11.4318 0.073097 11.3045 0.161836 11.2037L1.66325 9.49114C1.64151 9.1641 1.64151 8.8359 1.66325 8.50886L0.161836 6.79629C0.073097 6.69547 0.017678 6.56819 0.00357006 6.43278C-0.0105379 6.29736 0.0173942 6.16083 0.0833388 6.04286L1.81028 2.95714C1.87615 2.83934 1.97653 2.74612 2.09698 2.69091C2.21743 2.63569 2.35175 2.62132 2.48062 2.64986L4.66733 3.13714C4.93148 2.95329 5.2081 2.78743 5.49592 2.64214L6.18121 0.446143C6.22144 0.316986 6.30024 0.204272 6.40632 0.124136C6.51241 0.043999 6.64034 0.000547287 6.77181 0H10.2269ZM9.77091 1.28571H7.22909L6.52137 3.55757L6.04415 3.798C5.80956 3.91646 5.58309 4.05135 5.36634 4.20171L4.92526 4.51029L2.66254 4.00629L1.39163 6.27943L2.94289 8.05114L2.90551 8.59629C2.8876 8.86511 2.8876 9.13489 2.90551 9.40371L2.94289 9.94886L1.38914 11.7206L2.66129 13.9937L4.92401 13.491L5.36509 13.7983C5.58184 13.9487 5.80831 14.0835 6.04291 14.202L6.52012 14.4424L7.22909 16.7143H9.7734L10.4836 14.4411L10.9596 14.202C11.1939 14.0838 11.42 13.9489 11.6362 13.7983L12.076 13.491L14.34 13.9937L15.6109 11.7206L14.0584 9.94886L14.0957 9.40371C14.1137 9.13446 14.1137 8.86425 14.0957 8.595L14.0584 8.04986L15.6121 6.27943L14.34 4.00629L12.076 4.50771L11.6362 4.20171C11.42 4.05105 11.1939 3.91615 10.9596 3.798L10.4836 3.55886L9.77091 1.28571ZM8.5 5.14286C9.49137 5.14286 10.4421 5.54923 11.1431 6.27259C11.8441 6.99594 12.238 7.97702 12.238 9C12.238 10.023 11.8441 11.0041 11.1431 11.7274C10.4421 12.4508 9.49137 12.8571 8.5 12.8571C7.50863 12.8571 6.55786 12.4508 5.85686 11.7274C5.15585 11.0041 4.76203 10.023 4.76203 9C4.76203 7.97702 5.15585 6.99594 5.85686 6.27259C6.55786 5.54923 7.50863 5.14286 8.5 5.14286ZM8.5 6.42857C7.83909 6.42857 7.20524 6.69949 6.7379 7.18173C6.27057 7.66396 6.00802 8.31801 6.00802 9C6.00802 9.68199 6.27057 10.336 6.7379 10.8183C7.20524 11.3005 7.83909 11.5714 8.5 11.5714C9.16091 11.5714 9.79476 11.3005 10.2621 10.8183C10.7294 10.336 10.992 9.68199 10.992 9C10.992 8.31801 10.7294 7.66396 10.2621 7.18173C9.79476 6.69949 9.16091 6.42857 8.5 6.42857Z" fill="white"/>
</svg>
