<svg width="32" height="32" viewBox="0 0 32 32" fill="none" xmlns="http://www.w3.org/2000/svg">
<path d="M16 28C22.6274 28 28 22.6274 28 16C28 9.37258 22.6274 4 16 4C9.37258 4 4 9.37258 4 16C4 22.6274 9.37258 28 16 28Z" stroke="#19DFCB" stroke-width="1.5" stroke-linecap="round" stroke-linejoin="round"/>
<path d="M11.5 14.75C12.1904 14.75 12.75 14.1904 12.75 13.5C12.75 12.8096 12.1904 12.25 11.5 12.25C10.8096 12.25 10.25 12.8096 10.25 13.5C10.25 14.1904 10.8096 14.75 11.5 14.75Z" fill="#19DFCB"/>
<path d="M20.5 14.75C21.1904 14.75 21.75 14.1904 21.75 13.5C21.75 12.8096 21.1904 12.25 20.5 12.25C19.8096 12.25 19.25 12.8096 19.25 13.5C19.25 14.1904 19.8096 14.75 20.5 14.75Z" fill="#19DFCB"/>
<path d="M21.1976 22C20.6707 21.0878 19.9131 20.3303 19.0008 19.8036C18.0884 19.277 17.0535 18.9997 16.0001 18.9997C14.9467 18.9997 13.9118 19.2769 12.9995 19.8036C12.0871 20.3302 11.3295 21.0877 10.8026 22" stroke="#19DFCB" stroke-width="1.5" stroke-linecap="round" stroke-linejoin="round"/>
</svg>
