<svg width="22" height="22" viewBox="0 0 22 22" fill="none" xmlns="http://www.w3.org/2000/svg">
<path d="M17.8 5.5V9.5C17.8 10.218 17.218 10.8 16.5 10.8H15.5C13.4565 10.8 11.8 12.4565 11.8 14.5V16.5C11.8 17.218 11.218 17.8 10.5 17.8H5.5C3.67746 17.8 2.2 16.3225 2.2 14.5V5.5C2.2 3.67746 3.67746 2.2 5.5 2.2H14.5C16.3225 2.2 17.8 3.67746 17.8 5.5ZM16.5 12.2C16.9143 12.2 17.307 12.1066 17.6581 11.9397C17.1605 14.4279 15.3973 16.46 13.0682 17.3355C13.1538 17.0723 13.2 16.7914 13.2 16.5V14.5C13.2 13.2297 14.2297 12.2 15.5 12.2H16.5ZM14.5 0.8H5.5C2.90426 0.8 0.8 2.90426 0.8 5.5V14.5C0.8 17.0957 2.90426 19.2 5.5 19.2H10.5C15.3049 19.2 19.2 15.3049 19.2 10.5V5.5C19.2 2.90426 17.0957 0.8 14.5 0.8Z" fill="black" stroke="black" stroke-width="0.4"/>
</svg>
