<svg width="10" height="10" viewBox="-10 0 32 12" fill="none" xmlns="http://www.w3.org/2000/svg">
<path d="M12.4137 10.9293C12.119 10.2311 11.6913 9.59696 11.1544 9.06211C10.6191 8.52572 9.98503 8.09806 9.28717 7.80274C9.28092 7.79961 9.27467 7.79805 9.26842 7.79492C10.2419 7.0918 10.8747 5.94649 10.8747 4.6543C10.8747 2.51367 9.1403 0.779297 6.99967 0.779297C4.85905 0.779297 3.12467 2.51367 3.12467 4.6543C3.12467 5.94649 3.75749 7.0918 4.73092 7.79649C4.72467 7.79961 4.71842 7.80117 4.71217 7.8043C4.01217 8.09961 3.38405 8.52305 2.84499 9.06367C2.30859 9.59894 1.88093 10.233 1.58561 10.9309C1.29549 11.6141 1.13902 12.3466 1.12467 13.0887C1.12426 13.1054 1.12718 13.1219 1.13328 13.1375C1.13937 13.153 1.14851 13.1672 1.16016 13.1791C1.17181 13.191 1.18573 13.2005 1.2011 13.207C1.21648 13.2135 1.23299 13.2168 1.24967 13.2168H2.18717C2.25592 13.2168 2.31061 13.1621 2.31217 13.0949C2.34342 11.8887 2.8278 10.759 3.68405 9.90274C4.56998 9.0168 5.74655 8.5293 6.99967 8.5293C8.2528 8.5293 9.42936 9.0168 10.3153 9.90274C11.1715 10.759 11.6559 11.8887 11.6872 13.0949C11.6887 13.1637 11.7434 13.2168 11.8122 13.2168H12.7497C12.7664 13.2168 12.7829 13.2135 12.7982 13.207C12.8136 13.2005 12.8275 13.191 12.8392 13.1791C12.8508 13.1672 12.86 13.153 12.8661 13.1375C12.8722 13.1219 12.8751 13.1054 12.8747 13.0887C12.859 12.3418 12.7044 11.6152 12.4137 10.9293ZM6.99967 7.3418C6.28249 7.3418 5.60748 7.06211 5.09967 6.5543C4.59186 6.04649 4.31217 5.37149 4.31217 4.6543C4.31217 3.93711 4.59186 3.26211 5.09967 2.7543C5.60748 2.24648 6.28249 1.9668 6.99967 1.9668C7.71686 1.9668 8.39186 2.24648 8.89967 2.7543C9.40748 3.26211 9.68717 3.93711 9.68717 4.6543C9.68717 5.37149 9.40748 6.04649 8.89967 6.5543C8.39186 7.06211 7.71686 7.3418 6.99967 7.3418Z" fill="#323F4B"/>
</svg>
