<svg width="16" height="16" viewBox="0 0 16 16" fill="none" xmlns="http://www.w3.org/2000/svg">
<path d="M14.5717 0.859375C14.5038 0.859375 14.4342 0.871875 14.3646 0.900446L4.07171 5.03616H1.14314C0.985993 5.03616 0.857422 5.1683 0.857422 5.33259V10.6719C0.857422 10.8362 0.985993 10.9683 1.14314 10.9683H2.95921C2.89314 11.1754 2.85742 11.3951 2.85742 11.6183C2.85742 12.7951 3.81814 13.7522 5.00028 13.7522C5.98956 13.7522 6.82349 13.0808 7.06992 12.1737L14.3663 15.1058C14.436 15.1326 14.5056 15.1469 14.5735 15.1469C14.8753 15.1469 15.1449 14.8933 15.1449 14.554V1.45223C15.1431 1.11295 14.8753 0.859375 14.5717 0.859375ZM5.00028 12.4719C4.52706 12.4719 4.14314 12.0897 4.14314 11.6183C4.14314 11.4183 4.21278 11.2272 4.33956 11.0754L5.85564 11.6844C5.81992 12.1237 5.45028 12.4719 5.00028 12.4719ZM13.8574 13.5147L4.55028 9.77545L4.31992 9.68259H2.14314V6.32187H4.31992L4.55028 6.22902L13.8574 2.48973V13.5147Z" fill="white"/>
</svg>
