<svg width="14" height="14" viewBox="0 0 14 14" fill="none" xmlns="http://www.w3.org/2000/svg">
<path d="M13.1164 5.42596C12.8806 5.18011 12.6368 4.92596 12.5447 4.70325C12.4601 4.49866 12.455 4.15979 12.45 3.83203C12.4408 3.22211 12.4304 2.53082 11.9498 2.05023C11.4692 1.56964 10.7779 1.5592 10.168 1.54999C9.84021 1.54504 9.50134 1.53992 9.29675 1.45526C9.0741 1.36316 8.81989 1.11939 8.57404 0.883606C8.14221 0.469421 7.65265 0 7 0C6.34735 0 5.85785 0.469421 5.42596 0.883606C5.18011 1.11939 4.92596 1.36316 4.70325 1.45526C4.49866 1.53992 4.15979 1.54504 3.83203 1.54999C3.22211 1.5592 2.53082 1.56964 2.05023 2.05023C1.56964 2.53082 1.5592 3.22211 1.54999 3.83203C1.54504 4.15979 1.53992 4.49866 1.45526 4.70325C1.36316 4.9259 1.11939 5.18011 0.883606 5.42596C0.469421 5.85779 0 6.34735 0 7C0 7.65265 0.469421 8.14215 0.883606 8.57404C1.11939 8.81989 1.36316 9.07404 1.45526 9.29675C1.53992 9.50134 1.54504 9.84021 1.54999 10.168C1.5592 10.7779 1.56964 11.4692 2.05023 11.9498C2.53082 12.4304 3.22211 12.4408 3.83203 12.45C4.15979 12.455 4.49866 12.4601 4.70325 12.5447C4.9259 12.6368 5.18011 12.8806 5.42596 13.1164C5.85779 13.5306 6.34735 14 7 14C7.65265 14 8.14215 13.5306 8.57404 13.1164C8.81989 12.8806 9.07404 12.6368 9.29675 12.5447C9.50134 12.4601 9.84021 12.455 10.168 12.45C10.7779 12.4408 11.4692 12.4304 11.9498 11.9498C12.4304 11.4692 12.4408 10.7779 12.45 10.168C12.455 9.84021 12.4601 9.50134 12.5447 9.29675C12.6368 9.0741 12.8806 8.81989 13.1164 8.57404C13.5306 8.14221 14 7.65265 14 7C14 6.34735 13.5306 5.85785 13.1164 5.42596ZM10.0952 5.86169L6.42853 9.36169C6.33552 9.45047 6.21189 9.5 6.08331 9.5C5.95474 9.5 5.83111 9.45047 5.7381 9.36169L3.90479 7.61169C3.85726 7.56637 3.81913 7.51212 3.79257 7.45205C3.76602 7.39199 3.75155 7.32728 3.75001 7.26162C3.74847 7.19596 3.75988 7.13064 3.78358 7.06939C3.80729 7.00815 3.84283 6.95217 3.88817 6.90466C3.93352 6.85715 3.98778 6.81904 4.04786 6.7925C4.10793 6.76597 4.17265 6.75153 4.23831 6.75001C4.30397 6.74849 4.36928 6.75992 4.43052 6.78365C4.49176 6.80738 4.54772 6.84294 4.59521 6.88831L6.08331 8.30878L9.40478 5.13831C9.45228 5.09294 9.50824 5.05738 9.56948 5.03365C9.63072 5.00992 9.69603 4.99849 9.76169 5.00001C9.82735 5.00153 9.89207 5.01597 9.95214 5.0425C10.0122 5.06904 10.0665 5.10715 10.1118 5.15466C10.1572 5.20217 10.1927 5.25815 10.2164 5.31939C10.2401 5.38064 10.2515 5.44596 10.25 5.51162C10.2484 5.57728 10.234 5.64199 10.2074 5.70205C10.1809 5.76212 10.1427 5.81637 10.0952 5.86169Z" fill="#27AE60"/>
</svg>
