<svg width="16" height="14" viewBox="0 0 16 14" fill="none" xmlns="http://www.w3.org/2000/svg">
<path d="M15.1429 3.2597L12.8571 4.57577V1.86149C12.8571 1.23113 12.3446 0.718628 11.7143 0.718628H1.14286C0.5125 0.718628 0 1.23113 0 1.86149V12.1472C0 12.7776 0.5125 13.2901 1.14286 13.2901H11.7143C12.3446 13.2901 12.8571 12.7776 12.8571 12.1472V9.43291L15.1429 10.749C15.5232 10.9686 16 10.6936 16 10.2561V3.75434C16 3.31506 15.5232 3.04006 15.1429 3.2597ZM11.5714 12.0043H1.28571V2.00434H11.5714V12.0043ZM14.7143 9.0222L12.8571 7.95434V6.05613L14.7143 4.98649V9.0222ZM2.57143 4.29006H4.57143C4.65 4.29006 4.71429 4.22577 4.71429 4.1472V3.29006C4.71429 3.21149 4.65 3.1472 4.57143 3.1472H2.57143C2.49286 3.1472 2.42857 3.21149 2.42857 3.29006V4.1472C2.42857 4.22577 2.49286 4.29006 2.57143 4.29006Z" fill="#1890FF"/>
</svg>
